<svg version="1.1" xmlns="http://www.w3.org/2000/svg" viewBox="0 0 1535.4194946289062 1108.3126413822174" width="1535.4194946289062" height="1108.3126413822174">
  <!-- svg-source:excalidraw -->
  
  <defs>
    <style class="style-fonts">
      @font-face {
        font-family: "Virgil";
        src: url("https://excalidraw.com/Virgil.woff2");
      }
      @font-face {
        font-family: "Cascadia";
        src: url("https://excalidraw.com/Cascadia.woff2");
      }
    </style>
    
  </defs>
  <rect x="0" y="0" width="1535.4194946289062" height="1108.3126413822174" fill="#ffffff"></rect><g stroke-linecap="round" transform="translate(10 26) rotate(0 321 355)"><path d="M32 0 M32 0 C226.88 0.51, 422.38 0.78, 610 0 M32 0 C210.4 -0.78, 388.5 -1.51, 610 0 M610 0 C632.69 0.43, 641.46 9.63, 642 32 M610 0 C631.34 2.12, 642.27 10.07, 642 32 M642 32 C644.33 284.14, 645.09 537.16, 642 678 M642 32 C643.25 196.84, 642.81 361.56, 642 678 M642 678 C641.82 700.92, 629.68 710.12, 610 710 M642 678 C640.89 700.01, 631.82 708.58, 610 710 M610 710 C461.64 708.13, 312.84 708.37, 32 710 M610 710 C480.67 710.05, 351.3 709.78, 32 710 M32 710 C12.02 708.87, 1.98 699.08, 0 678 M32 710 C11.15 709.74, -1.85 699.57, 0 678 M0 678 C1.01 440.46, 1.92 203.36, 0 32 M0 678 C0.69 522.08, 0.34 366.61, 0 32 M0 32 C-1.55 12.55, 11.99 -1.84, 32 0 M0 32 C-2.05 10.42, 10.58 1.9, 32 0" stroke="#364fc7" stroke-width="1" fill="none"></path></g><g transform="translate(53 57) rotate(0 66.95993041992188 12.5)"><text x="0" y="0" font-family="Virgil, Segoe UI Emoji" font-size="20px" fill="#364fc7" text-anchor="start" style="white-space: pre;" direction="ltr" dominant-baseline="text-before-edge">parent window</text></g><g stroke-linecap="round" transform="translate(57 283) rotate(0 237 209.5)"><path d="M32 0 M32 0 C181.75 0.69, 333.74 1.27, 442 0 M32 0 C131.06 0.19, 229.38 0.46, 442 0 M442 0 C461.78 1.88, 475.32 8.82, 474 32 M442 0 C461.28 -0.24, 473.91 12.56, 474 32 M474 32 C472.13 113.53, 472.5 196.1, 474 387 M474 32 C472.47 165.91, 471.69 300.87, 474 387 M474 387 C475.23 409.97, 463.19 419.2, 442 419 M474 387 C476.18 409.13, 464.61 418.69, 442 419 M442 419 C354.74 421.68, 269.9 420.61, 32 419 M442 419 C330.52 421.47, 219.14 421.3, 32 419 M32 419 C11.8 419.92, 1.24 409.94, 0 387 M32 419 C10.65 419.65, -0.08 408.62, 0 387 M0 387 C-0.58 275.18, 0.08 163.75, 0 32 M0 387 C0.83 301.54, 1.21 217.4, 0 32 M0 32 C-1.51 11.35, 11.58 -0.57, 32 0 M0 32 C-0.42 12.83, 10.57 0.58, 32 0" stroke="#364fc7" stroke-width="1" fill="none"></path></g><g transform="translate(109 313) rotate(0 122.29984283447266 12.5)"><text x="0" y="0" font-family="Virgil, Segoe UI Emoji" font-size="20px" fill="#364fc7" text-anchor="start" style="white-space: pre;" direction="ltr" dominant-baseline="text-before-edge">iframe: src = 'config app'</text></g><g stroke-linecap="round" transform="translate(112 577) rotate(0 66.5 46)"><path d="M23 0 M23 0 C49.58 -2.25, 81.15 -0.3, 110 0 M23 0 C42.78 1.05, 62.04 1.1, 110 0 M110 0 C125.94 -1.84, 131.39 9.39, 133 23 M110 0 C123.41 -1.96, 135.2 9.67, 133 23 M133 23 C134.16 36.68, 132.19 49.56, 133 69 M133 23 C132.66 33.75, 132.71 42.19, 133 69 M133 69 C132.93 85.5, 123.75 93.55, 110 92 M133 69 C134.16 83.59, 124.25 90.72, 110 92 M110 92 C78.48 91.94, 44.02 91.52, 23 92 M110 92 C90.09 93.23, 71.61 92.31, 23 92 M23 92 C9.09 92.34, -1.59 85.27, 0 69 M23 92 C6.03 91.64, -0.84 85.74, 0 69 M0 69 C-0.75 56.19, 0.28 41.03, 0 23 M0 69 C-0.82 58.75, 0.25 48.66, 0 23 M0 23 C-0.83 7.56, 7.34 -1.29, 23 0 M0 23 C1.07 9.24, 5.79 -1.53, 23 0" stroke="#364fc7" stroke-width="1" fill="none"></path></g><g stroke-linecap="round" transform="translate(119 596) rotate(0 61 8)"><path d="M4 0 M4 0 C35.29 2.08, 63.57 0.38, 118 0 M4 0 C42.04 0.08, 78.36 1.18, 118 0 M118 0 C121.71 1.92, 121.17 1.23, 122 4 M118 0 C120.3 -1.48, 123.07 2.9, 122 4 M122 4 C121.22 5.7, 122.38 6.86, 122 12 M122 4 C121.91 5.92, 122.3 7.57, 122 12 M122 12 C122.78 14.86, 118.85 15.09, 118 16 M122 12 C123.78 14.23, 119.61 15.11, 118 16 M118 16 C82.58 14.68, 42.05 13.39, 4 16 M118 16 C90.78 17.46, 62.95 17.01, 4 16 M4 16 C1.71 16.49, 0.73 14.5, 0 12 M4 16 C1.04 18.22, -0.44 15.28, 0 12 M0 12 C-0.57 9.81, 0.22 6.91, 0 4 M0 12 C-0.32 9.16, -0.26 5.57, 0 4 M0 4 C-1.45 1.75, 2.08 -1.65, 4 0 M0 4 C0.9 2.58, 0.17 0.65, 4 0" stroke="#364fc7" stroke-width="1" fill="none"></path></g><g stroke-linecap="round" transform="translate(116 620) rotate(0 61 8)"><path d="M4 0 M4 0 C29.24 -2.1, 59.42 -2.58, 118 0 M4 0 C36.93 1.09, 70.29 0.65, 118 0 M118 0 C120.38 1.44, 120.1 2.11, 122 4 M118 0 C120.89 -2.09, 120.95 3.11, 122 4 M122 4 C122.16 6.57, 121.19 9.14, 122 12 M122 4 C121.7 6.51, 122.22 8.87, 122 12 M122 12 C123.25 15.83, 121.02 16.37, 118 16 M122 12 C122.56 15.51, 120.48 15.7, 118 16 M118 16 C73.19 16.79, 28.7 14.92, 4 16 M118 16 C79.4 16.71, 39.12 15.39, 4 16 M4 16 C2.8 14.95, -0.84 13.21, 0 12 M4 16 C1.81 16.86, -1.9 15.57, 0 12 M0 12 C0.81 9.76, -0.19 5.57, 0 4 M0 12 C0.18 8.87, -0.13 5.89, 0 4 M0 4 C-0.08 0.8, -0.36 0.92, 4 0 M0 4 C0.69 -0.77, 2.18 0.37, 4 0" stroke="#364fc7" stroke-width="1" fill="none"></path></g><g stroke-linecap="round"><g transform="translate(70 123) rotate(0 21.21131602503226 223.6141334738336)"><path d="M-0.67 0.6 C6.7 75.31, 35.82 372.9, 43.09 447.36 M1.18 -0.13 C8.57 74.31, 35.7 371.36, 42.61 445.61" stroke="#364fc7" stroke-width="1" fill="none"></path></g><g transform="translate(70 123) rotate(0 21.21131602503226 223.6141334738336)"><path d="M30.8 419.94 C33.42 425.38, 36.02 430.06, 42.98 446.1 M30.77 418.29 C34.36 427.84, 38.64 437.34, 41.91 446.08" stroke="#364fc7" stroke-width="1" fill="none"></path></g><g transform="translate(70 123) rotate(0 21.21131602503226 223.6141334738336)"><path d="M51.24 418.06 C49.64 423.76, 48.04 428.83, 42.98 446.1 M51.2 416.4 C47.91 426.56, 45.32 436.7, 41.91 446.08" stroke="#364fc7" stroke-width="1" fill="none"></path></g></g><mask></mask><g transform="translate(112 172) rotate(0 103.22988891601562 12.5)"><text x="0" y="0" font-family="Virgil, Segoe UI Emoji" font-size="20px" fill="#364fc7" text-anchor="start" style="white-space: pre;" direction="ltr" dominant-baseline="text-before-edge">window.postMessage()</text></g><g stroke-linecap="round" transform="translate(376 314) rotate(0 70.5 131)"><path d="M92.98 5.82 C100.81 8.65, 109.07 19.05, 115.5 29.34 C121.92 39.62, 127.34 53.63, 131.54 67.53 C135.74 81.42, 139.42 97.14, 140.71 112.72 C142 128.3, 141.25 145.54, 139.28 161.01 C137.31 176.48, 133.59 192.4, 128.89 205.52 C124.2 218.64, 118.31 230.87, 111.14 239.73 C103.96 248.59, 94.14 255.29, 85.87 258.68 C77.59 262.07, 69.62 262.35, 61.47 260.08 C53.33 257.81, 44.54 252.63, 37 245.06 C29.45 237.5, 21.76 226.85, 16.22 214.68 C10.69 202.52, 6.6 187.13, 3.79 172.07 C0.99 157, -0.99 139.96, -0.6 124.3 C-0.21 108.63, 2.54 92.24, 6.13 78.07 C9.72 63.89, 15.08 50.52, 20.95 39.26 C26.83 28.01, 33.83 16.92, 41.4 10.55 C48.97 4.19, 56.72 1.02, 66.38 1.08 C76.04 1.14, 92.9 7.8, 99.36 10.91 C105.83 14.02, 105.55 17.6, 105.15 19.73 M96.47 9.41 C104.64 12.96, 114.4 24.28, 120.58 35.36 C126.76 46.43, 130.27 61.38, 133.54 75.86 C136.81 90.35, 139.51 106.46, 140.23 122.29 C140.95 138.13, 140.27 155.86, 137.85 170.88 C135.43 185.89, 131.04 200.39, 125.71 212.41 C120.37 224.42, 113.38 235.11, 105.83 242.95 C98.27 250.79, 88.85 256.92, 80.37 259.47 C71.89 262.02, 62.86 261.16, 54.93 258.25 C47 255.34, 39.94 250.26, 32.78 242.02 C25.63 233.77, 17.35 221.73, 12.01 208.79 C6.68 195.85, 2.85 179.75, 0.78 164.38 C-1.29 149.02, -1.57 132.45, -0.39 116.61 C0.79 100.78, 3.73 83.55, 7.85 69.38 C11.97 55.22, 17.62 41.81, 24.33 31.64 C31.03 21.46, 39.91 13.51, 48.09 8.36 C56.26 3.21, 65.27 0.53, 73.38 0.73 C81.49 0.93, 93 7.67, 96.73 9.55 C100.47 11.43, 95.9 9.79, 95.81 12.02" stroke="#364fc7" stroke-width="1" fill="none"></path></g><g transform="translate(403.55902136482496 369.8690116645621) rotate(0 43.08995056152344 75)"><text x="43.08995056152344" y="0" font-family="Virgil, Segoe UI Emoji" font-size="20px" fill="#364fc7" text-anchor="middle" style="white-space: pre;" direction="ltr" dominant-baseline="text-before-edge">add </text><text x="43.08995056152344" y="25" font-family="Virgil, Segoe UI Emoji" font-size="20px" fill="#364fc7" text-anchor="middle" style="white-space: pre;" direction="ltr" dominant-baseline="text-before-edge">event</text><text x="43.08995056152344" y="50" font-family="Virgil, Segoe UI Emoji" font-size="20px" fill="#364fc7" text-anchor="middle" style="white-space: pre;" direction="ltr" dominant-baseline="text-before-edge">listener</text><text x="43.08995056152344" y="75" font-family="Virgil, Segoe UI Emoji" font-size="20px" fill="#364fc7" text-anchor="middle" style="white-space: pre;" direction="ltr" dominant-baseline="text-before-edge"></text><text x="43.08995056152344" y="100" font-family="Virgil, Segoe UI Emoji" font-size="20px" fill="#364fc7" text-anchor="middle" style="white-space: pre;" direction="ltr" dominant-baseline="text-before-edge">"message</text><text x="43.08995056152344" y="125" font-family="Virgil, Segoe UI Emoji" font-size="20px" fill="#364fc7" text-anchor="middle" style="white-space: pre;" direction="ltr" dominant-baseline="text-before-edge">"</text></g><g stroke-linecap="round"><g transform="translate(495 482) rotate(0 193.88599708891473 -0.22452099672523218)"><path d="M0.04 -0.93 C64.7 -0.92, 322.5 0.04, 386.99 0.32 M-1.4 1.19 C63.71 0.81, 324.05 -1.24, 389.17 -1.64" stroke="#364fc7" stroke-width="1" fill="none"></path></g><g transform="translate(495 482) rotate(0 193.88599708891473 -0.22452099672523218)"><path d="M359.5 7.14 C367.69 4.8, 374.5 3.54, 390.11 -1.78 M360.21 9.75 C368.56 5.37, 375.79 2.95, 390.08 -2.42" stroke="#364fc7" stroke-width="1" fill="none"></path></g><g transform="translate(495 482) rotate(0 193.88599708891473 -0.22452099672523218)"><path d="M359.35 -13.38 C367.61 -11.26, 374.46 -8.04, 390.11 -1.78 M360.06 -10.77 C368.29 -9.92, 375.56 -7.11, 390.08 -2.42" stroke="#364fc7" stroke-width="1" fill="none"></path></g></g><mask></mask><g stroke-linecap="round" transform="translate(680 431) rotate(0 64 56)"><path d="M86.19 3.94 C95.44 6.09, 106.22 12.73, 112.78 19.15 C119.33 25.58, 123.46 34.25, 125.54 42.52 C127.62 50.78, 127.59 60.37, 125.25 68.74 C122.91 77.11, 117.83 86.28, 111.49 92.74 C105.15 99.21, 96.36 104.35, 87.2 107.53 C78.04 110.72, 66.39 112.87, 56.52 111.86 C46.65 110.85, 36.15 106.49, 27.98 101.45 C19.82 96.42, 12.28 89.34, 7.54 81.64 C2.8 73.94, -0.58 63.86, -0.44 55.27 C-0.31 46.69, 3.55 37.68, 8.36 30.12 C13.17 22.56, 20.27 15.03, 28.41 9.92 C36.55 4.82, 46.47 0.09, 57.21 -0.51 C67.95 -1.12, 86.01 4.56, 92.86 6.31 C99.71 8.05, 98.79 9.35, 98.32 9.95 M82.55 3.11 C91.65 4.67, 101.1 10.98, 108.32 16.86 C115.53 22.73, 122.66 30.28, 125.84 38.34 C129.02 46.41, 129.21 56.49, 127.42 65.22 C125.62 73.95, 120.91 83.94, 115.06 90.72 C109.21 97.49, 101.28 102.54, 92.3 105.88 C83.33 109.22, 71.47 111.05, 61.22 110.74 C50.97 110.42, 39.33 107.92, 30.81 103.99 C22.3 100.07, 15.04 94.66, 10.12 87.18 C5.21 79.69, 2.14 68.01, 1.33 59.08 C0.51 50.16, 1.38 41.42, 5.23 33.64 C9.09 25.86, 16.61 17.67, 24.44 12.41 C32.28 7.15, 42.45 3.79, 52.26 2.07 C62.07 0.35, 78.22 1.66, 83.32 2.09 C88.42 2.52, 83.13 3.56, 82.84 4.65" stroke="#364fc7" stroke-width="1" fill="none"></path></g><g transform="translate(731 447) rotate(0 26.489974975585938 12.5)"><text x="0" y="0" font-family="Virgil, Segoe UI Emoji" font-size="20px" fill="#364fc7" text-anchor="start" style="white-space: pre;" direction="ltr" dominant-baseline="text-before-edge">event</text></g><g transform="translate(115.77011108398438 210.5) rotate(0 155.7698516845703 12.5)"><text x="0" y="0" font-family="Virgil, Segoe UI Emoji" font-size="20px" fill="#364fc7" text-anchor="start" style="white-space: pre;" direction="ltr" dominant-baseline="text-before-edge">window.postMessage(message, *)</text></g><g stroke-linecap="round"><g transform="translate(444 220) rotate(0 180.98268265876453 -102.61537877719365)"><path d="M0.9 -1.05 C61.21 -35.6, 301.76 -172.07, 362.05 -206.25 M-0.08 1.02 C60.05 -32.84, 300.74 -170.53, 361.13 -204.84" stroke="#364fc7" stroke-width="1" fill="none"></path></g><g transform="translate(444 220) rotate(0 180.98268265876453 -102.61537877719365)"><path d="M339.97 -181.88 C347.29 -188.31, 353.7 -195.45, 362.4 -202.98 M342.66 -181.28 C346.53 -188.03, 353.17 -195.86, 361.82 -205.76" stroke="#364fc7" stroke-width="1" fill="none"></path></g><g transform="translate(444 220) rotate(0 180.98268265876453 -102.61537877719365)"><path d="M329.81 -199.71 C340.53 -200.53, 350.18 -201.98, 362.4 -202.98 M332.49 -199.11 C339.46 -200.78, 349.05 -203.45, 361.82 -205.76" stroke="#364fc7" stroke-width="1" fill="none"></path></g></g><mask></mask><g stroke-linecap="round"><g transform="translate(758 508) rotate(0 74.34536979381744 65.5532756232119)"><path d="M-1.17 -0.43 C-1.66 19.22, -29.18 96.13, -1.88 118 C25.42 139.87, 135.3 128.65, 162.63 130.82 M0.41 -1.7 C-0.23 18.05, -29.21 96.81, -2.24 119.01 C24.72 141.22, 134.76 129.41, 162.2 131.51" stroke="#364fc7" stroke-width="1" fill="none"></path></g><g transform="translate(758 508) rotate(0 74.34536979381744 65.5532756232119)"><path d="M133.44 144.01 C143.38 139.34, 153.99 134.33, 160.58 132.89 M134.08 142.74 C142.94 138.17, 149.95 136.76, 162.14 131.05" stroke="#364fc7" stroke-width="1" fill="none"></path></g><g transform="translate(758 508) rotate(0 74.34536979381744 65.5532756232119)"><path d="M133.16 123.49 C143.24 126.81, 153.95 129.77, 160.58 132.89 M133.8 122.22 C142.88 123.66, 149.97 128.25, 162.14 131.05" stroke="#364fc7" stroke-width="1" fill="none"></path></g></g><mask></mask><g transform="translate(954 633) rotate(0 81.45989990234375 50)"><text x="0" y="0" font-family="Virgil, Segoe UI Emoji" font-size="20px" fill="#364fc7" text-anchor="start" style="white-space: pre;" direction="ltr" dominant-baseline="text-before-edge">three properties:</text><text x="0" y="25" font-family="Virgil, Segoe UI Emoji" font-size="20px" fill="#364fc7" text-anchor="start" style="white-space: pre;" direction="ltr" dominant-baseline="text-before-edge">- data</text><text x="0" y="50" font-family="Virgil, Segoe UI Emoji" font-size="20px" fill="#364fc7" text-anchor="start" style="white-space: pre;" direction="ltr" dominant-baseline="text-before-edge">- source</text><text x="0" y="75" font-family="Virgil, Segoe UI Emoji" font-size="20px" fill="#364fc7" text-anchor="start" style="white-space: pre;" direction="ltr" dominant-baseline="text-before-edge">- origin</text></g><g transform="translate(810 10) rotate(0 47.229942321777344 12.5)"><text x="0" y="0" font-family="Virgil, Segoe UI Emoji" font-size="20px" fill="#364fc7" text-anchor="start" style="white-space: pre;" direction="ltr" dominant-baseline="text-before-edge">message: </text></g><g stroke-linecap="round"><g transform="translate(374 291) rotate(0 303.7464345840131 -39.83707735340454)"><path d="M0.82 -0.87 C51.51 -13.46, 202.58 -66.39, 303.73 -76.59 C404.87 -86.79, 557.14 -64.67, 607.7 -62.05 M-0.2 1.28 C50.34 -11.58, 201.38 -68.16, 302.63 -78.5 C403.88 -88.84, 556.51 -63.37, 607.3 -60.76" stroke="#364fc7" stroke-width="1" fill="none"></path></g><g transform="translate(374 291) rotate(0 303.7464345840131 -39.83707735340454)"><path d="M576.76 -53.83 C586.72 -54.38, 593.7 -57.38, 609.15 -62.68 M577.58 -52.47 C586.63 -55.34, 594.28 -57.66, 606.82 -59.86" stroke="#364fc7" stroke-width="1" fill="none"></path></g><g transform="translate(374 291) rotate(0 303.7464345840131 -39.83707735340454)"><path d="M578.81 -74.25 C588.04 -69.34, 594.48 -66.9, 609.15 -62.68 M579.63 -72.89 C588.28 -70.28, 595.39 -67.14, 606.82 -59.86" stroke="#364fc7" stroke-width="1" fill="none"></path></g></g><mask></mask><g transform="translate(130 359) rotate(0 68.3099365234375 25)"><text x="0" y="0" font-family="Virgil, Segoe UI Emoji" font-size="20px" fill="#1971c2" text-anchor="start" style="white-space: pre;" direction="ltr" dominant-baseline="text-before-edge">id</text><text x="0" y="25" font-family="Virgil, Segoe UI Emoji" font-size="20px" fill="#1971c2" text-anchor="start" style="white-space: pre;" direction="ltr" dominant-baseline="text-before-edge">contentWindow</text></g><g transform="translate(1023 226) rotate(0 251.20974731445312 37.5)"><text x="0" y="0" font-family="Virgil, Segoe UI Emoji" font-size="20px" fill="#364fc7" text-anchor="start" style="white-space: pre;" direction="ltr" dominant-baseline="text-before-edge">iframeElem = document.getElementById( iframeId );</text><text x="0" y="25" font-family="Virgil, Segoe UI Emoji" font-size="20px" fill="#364fc7" text-anchor="start" style="white-space: pre;" direction="ltr" dominant-baseline="text-before-edge">iframewindow = iframeElem.contentWindow</text><text x="0" y="50" font-family="Virgil, Segoe UI Emoji" font-size="20px" fill="#364fc7" text-anchor="start" style="white-space: pre;" direction="ltr" dominant-baseline="text-before-edge">iframewindow.postMessage(payload, *);</text></g><g transform="translate(87.95683145523071 848.3126413822174) rotate(0 226.68975830078125 125)"><text x="0" y="0" font-family="Virgil, Segoe UI Emoji" font-size="20px" fill="#f08c00" text-anchor="start" style="white-space: pre;" direction="ltr" dominant-baseline="text-before-edge">cross-origin</text><text x="0" y="25" font-family="Virgil, Segoe UI Emoji" font-size="20px" fill="#f08c00" text-anchor="start" style="white-space: pre;" direction="ltr" dominant-baseline="text-before-edge"></text><text x="0" y="50" font-family="Virgil, Segoe UI Emoji" font-size="20px" fill="#f08c00" text-anchor="start" style="white-space: pre;" direction="ltr" dominant-baseline="text-before-edge">from parent to iframe:</text><text x="0" y="75" font-family="Virgil, Segoe UI Emoji" font-size="20px" fill="#f08c00" text-anchor="start" style="white-space: pre;" direction="ltr" dominant-baseline="text-before-edge"></text><text x="0" y="100" font-family="Virgil, Segoe UI Emoji" font-size="20px" fill="#f08c00" text-anchor="start" style="white-space: pre;" direction="ltr" dominant-baseline="text-before-edge">-&gt; access iframes content window.</text><text x="0" y="125" font-family="Virgil, Segoe UI Emoji" font-size="20px" fill="#f08c00" text-anchor="start" style="white-space: pre;" direction="ltr" dominant-baseline="text-before-edge">-&gt; send postMessage to that content window.</text><text x="0" y="150" font-family="Virgil, Segoe UI Emoji" font-size="20px" fill="#f08c00" text-anchor="start" style="white-space: pre;" direction="ltr" dominant-baseline="text-before-edge"></text><text x="0" y="175" font-family="Virgil, Segoe UI Emoji" font-size="20px" fill="#f08c00" text-anchor="start" style="white-space: pre;" direction="ltr" dominant-baseline="text-before-edge">from iframe to parent:</text><text x="0" y="200" font-family="Virgil, Segoe UI Emoji" font-size="20px" fill="#f08c00" text-anchor="start" style="white-space: pre;" direction="ltr" dominant-baseline="text-before-edge"></text><text x="0" y="225" font-family="Virgil, Segoe UI Emoji" font-size="20px" fill="#f08c00" text-anchor="start" style="white-space: pre;" direction="ltr" dominant-baseline="text-before-edge">-&gt; send postMessage to window.parent</text></g></svg>