<svg version="1.1" xmlns="http://www.w3.org/2000/svg" viewBox="0 0 1596 494" width="1596" height="494">
  <!-- svg-source:excalidraw -->
  
  <defs>
    <style class="style-fonts">
      @font-face {
        font-family: "Virgil";
        src: url("https://excalidraw.com/Virgil.woff2");
      }
      @font-face {
        font-family: "Cascadia";
        src: url("https://excalidraw.com/Cascadia.woff2");
      }
    </style>
    
  </defs>
  <rect x="0" y="0" width="1596" height="494" fill="#ffffff"></rect><g transform="translate(541 193) rotate(0 136.2198486328125 37.5)"><text x="0" y="0" font-family="Virgil, Segoe UI Emoji" font-size="20px" fill="#2f9e44" text-anchor="start" style="white-space: pre;" direction="ltr" dominant-baseline="text-before-edge">1. Opens a new Page B</text><text x="0" y="25" font-family="Virgil, Segoe UI Emoji" font-size="20px" fill="#2f9e44" text-anchor="start" style="white-space: pre;" direction="ltr" dominant-baseline="text-before-edge">2. Also send the the ph no.</text><text x="0" y="50" font-family="Virgil, Segoe UI Emoji" font-size="20px" fill="#2f9e44" text-anchor="start" style="white-space: pre;" direction="ltr" dominant-baseline="text-before-edge">from viewOne to viewTwo</text></g><g stroke-linecap="round" transform="translate(10 101) rotate(0 253 191.5)"><path d="M32 0 M32 0 C186.06 -0.54, 340.05 0.51, 474 0 M32 0 C166.45 -0.93, 300.32 -0.82, 474 0 M474 0 C496.75 1.54, 507.55 10.07, 506 32 M474 0 C493.64 -0.58, 506.05 12.65, 506 32 M506 32 C506.59 128.32, 507.31 225.65, 506 351 M506 32 C504.43 102.29, 503.88 173.49, 506 351 M506 351 C505.59 373.8, 496.24 381.63, 474 383 M506 351 C506.83 371.07, 493.2 385.03, 474 383 M474 383 C327.35 384.97, 181.58 384.6, 32 383 M474 383 C367.55 383.66, 262.07 383.7, 32 383 M32 383 C11.02 381.34, -0.01 370.84, 0 351 M32 383 C10.18 382.85, -0.38 371.71, 0 351 M0 351 C-0.47 268.73, -2.29 186.96, 0 32 M0 351 C-0.57 239.27, -1.51 126.61, 0 32 M0 32 C-0.17 10.98, 9.52 -1.73, 32 0 M0 32 C1.26 9.15, 8.99 -2.13, 32 0" stroke="#f08c00" stroke-width="1" fill="none"></path></g><g transform="translate(62 110) rotate(0 59.519935607910156 12.5)"><text x="0" y="0" font-family="Virgil, Segoe UI Emoji" font-size="20px" fill="#f08c00" text-anchor="start" style="white-space: pre;" direction="ltr" dominant-baseline="text-before-edge">CRM page A</text></g><g stroke-linecap="round" transform="translate(54 168) rotate(0 208 28)"><path d="M3.73 3.24 C3.73 3.24, 3.73 3.24, 3.73 3.24 M3.73 3.24 C3.73 3.24, 3.73 3.24, 3.73 3.24 M3.47 9.64 C4.1 7.14, 5.97 7.44, 10.03 2.09 M3.47 9.64 C4.85 8.23, 6.72 6.07, 10.03 2.09 M2.55 16.79 C4.67 12.44, 7.92 9.13, 15.67 1.7 M2.55 16.79 C6.8 11.57, 11.09 5.83, 15.67 1.7 M2.94 22.43 C8.41 19.84, 9.25 12.51, 21.31 1.3 M2.94 22.43 C9.71 16.25, 15.77 8.03, 21.31 1.3 M3.34 28.08 C11.81 18.61, 17.42 8.76, 26.3 1.66 M3.34 28.08 C13.07 16.58, 21.64 7.7, 26.3 1.66 M3.08 34.47 C12.96 23.03, 24.37 9.84, 31.94 1.27 M3.08 34.47 C9.87 25.95, 18.78 16.36, 31.94 1.27 M3.47 40.12 C11.85 29.39, 20.61 21.2, 36.93 1.63 M3.47 40.12 C13.02 30.15, 21.42 18.02, 36.93 1.63 M1.24 48.78 C14.25 34.46, 30.17 18.4, 42.57 1.23 M1.24 48.78 C13.72 33.73, 28.54 17.99, 42.57 1.23 M3.6 52.16 C15.34 37.69, 30.35 19.73, 47.56 1.59 M3.6 52.16 C11.84 41.68, 23.15 30.06, 47.56 1.59 M6.62 54.78 C21.63 38.8, 35.11 19.5, 52.55 1.95 M6.62 54.78 C17.15 43.78, 26.41 31.41, 52.55 1.95 M10.95 55.9 C18.87 44.71, 31.04 31.78, 58.19 1.56 M10.95 55.9 C23.98 40.81, 38.15 26.03, 58.19 1.56 M15.94 56.26 C31.35 39.98, 45.43 23.01, 63.18 1.92 M15.94 56.26 C33.39 35.08, 51.94 16.42, 63.18 1.92 M21.58 55.86 C39.77 34.48, 58.64 11.57, 68.82 1.52 M21.58 55.86 C40.3 35.03, 58.62 14.36, 68.82 1.52 M26.57 56.22 C42.6 36.15, 63.97 14.51, 73.81 1.88 M26.57 56.22 C38.99 43.83, 49.87 30.8, 73.81 1.88 M32.21 55.83 C45.5 42.08, 54.29 28.71, 79.45 1.49 M32.21 55.83 C47.28 36.68, 64.24 19.71, 79.45 1.49 M37.2 56.19 C46.28 41.83, 59.69 32.78, 84.44 1.85 M37.2 56.19 C51.54 39.81, 64.8 23.72, 84.44 1.85 M42.84 55.79 C56.13 37.69, 73.06 22.51, 90.08 1.45 M42.84 55.79 C57.81 38.8, 71.66 21.77, 90.08 1.45 M47.83 56.15 C59.47 40.06, 74.75 28.8, 95.07 1.81 M47.83 56.15 C61.96 37.63, 77.03 22.23, 95.07 1.81 M53.47 55.76 C64.28 42.76, 78.43 25.8, 100.71 1.42 M53.47 55.76 C63.22 44.92, 73.47 33.72, 100.71 1.42 M58.46 56.12 C69.97 42.54, 83.37 29.57, 105.7 1.78 M58.46 56.12 C72.79 40.41, 84.19 26.37, 105.7 1.78 M64.1 55.72 C83.12 35.39, 96.38 14.13, 111.34 1.39 M64.1 55.72 C80.49 37.17, 97.12 18.94, 111.34 1.39 M69.09 56.08 C82.12 39.09, 96.81 21.15, 116.33 1.75 M69.09 56.08 C79.42 42.98, 91.2 31.09, 116.33 1.75 M74.73 55.69 C92.54 34.1, 110.4 11.94, 121.97 1.35 M74.73 55.69 C87.26 39.78, 101.32 23.6, 121.97 1.35 M79.72 56.05 C93.19 39.4, 107.45 23.08, 126.96 1.71 M79.72 56.05 C93.72 40.74, 105.78 25.24, 126.96 1.71 M85.36 55.66 C98.08 41.63, 112.67 23.76, 132.6 1.32 M85.36 55.66 C98.57 39.92, 112.87 25.54, 132.6 1.32 M90.35 56.02 C102.08 44.24, 112.38 29.83, 137.59 1.68 M90.35 56.02 C107.92 36.24, 124.94 14.99, 137.59 1.68 M95.99 55.62 C112.72 36.03, 127.35 18.36, 143.23 1.28 M95.99 55.62 C112.87 35.06, 130.92 15.01, 143.23 1.28 M100.98 55.98 C114.77 40.53, 126.88 25.86, 148.22 1.64 M100.98 55.98 C116.16 39.71, 130.53 22.29, 148.22 1.64 M105.97 56.34 C123.15 32.71, 143.09 14.37, 153.2 2 M105.97 56.34 C120.48 39.86, 133.92 24.53, 153.2 2 M111.61 55.95 C129.05 36, 142.22 18.02, 158.85 1.61 M111.61 55.95 C127.3 39, 142.33 20.29, 158.85 1.61 M116.6 56.31 C128.41 43.72, 138.5 29.77, 163.83 1.97 M116.6 56.31 C126.52 44.34, 138.41 31.44, 163.83 1.97 M122.24 55.91 C137.11 41.29, 149.7 26.8, 169.48 1.57 M122.24 55.91 C136.68 38.26, 152.1 21.45, 169.48 1.57 M127.23 56.27 C135.54 44.96, 146.16 32.47, 174.46 1.93 M127.23 56.27 C145.37 35.46, 164.52 15.39, 174.46 1.93 M132.87 55.88 C149.47 36.41, 163.49 19.04, 180.11 1.54 M132.87 55.88 C144.68 42.26, 157.02 30.14, 180.11 1.54 M137.86 56.24 C157.89 36.17, 173.16 11.83, 185.09 1.9 M137.86 56.24 C149.15 44.24, 158.74 30.79, 185.09 1.9 M143.5 55.84 C156.11 39.9, 167.97 24.55, 190.74 1.5 M143.5 55.84 C157.1 40.34, 171.46 23.71, 190.74 1.5 M148.49 56.2 C159.92 41.73, 171.02 29.19, 195.72 1.86 M148.49 56.2 C163.7 38.19, 176.82 21.5, 195.72 1.86 M154.13 55.81 C173.75 33.77, 192.22 14.74, 201.37 1.47 M154.13 55.81 C169.16 38.18, 184.69 18.86, 201.37 1.47 M159.12 56.17 C175.32 35.97, 190.77 21.3, 206.35 1.83 M159.12 56.17 C176.86 35.5, 195.12 14.81, 206.35 1.83 M164.76 55.77 C180.02 37.63, 195.54 17.91, 212 1.43 M164.76 55.77 C175.09 42.89, 187.37 29.01, 212 1.43 M169.75 56.13 C178.72 42.21, 190.83 31.01, 216.98 1.79 M169.75 56.13 C182.76 42.12, 194.65 27.07, 216.98 1.79 M175.39 55.74 C191.62 37.38, 210.28 14.82, 222.63 1.4 M175.39 55.74 C193.11 35.5, 209.37 15.05, 222.63 1.4 M180.38 56.1 C196.56 36.56, 214.25 14.31, 227.61 1.76 M180.38 56.1 C192.4 43.72, 202.53 29.86, 227.61 1.76 M186.02 55.7 C196.37 42.62, 206.65 30.32, 233.26 1.37 M186.02 55.7 C200.83 38.9, 216.58 20.5, 233.26 1.37 M191.01 56.06 C201.29 41.54, 212.54 30.64, 238.24 1.73 M191.01 56.06 C201.1 45.22, 211.68 33.08, 238.24 1.73 M196 56.43 C207.54 43.93, 218.44 32.24, 243.89 1.33 M196 56.43 C211.76 37.63, 227.64 18.92, 243.89 1.33 M201.64 56.03 C210.98 45.17, 223.68 29.34, 248.87 1.69 M201.64 56.03 C219.77 34.26, 238.42 13.72, 248.87 1.69 M206.63 56.39 C218.2 46, 225.4 31.58, 253.86 2.05 M206.63 56.39 C221.88 39.02, 236.31 20.72, 253.86 2.05 M212.27 56 C226.43 44.08, 235.12 28.82, 259.5 1.66 M212.27 56 C230.01 35.54, 247.77 15.74, 259.5 1.66 M217.26 56.36 C229.18 40.92, 239 29.65, 264.49 2.02 M217.26 56.36 C228.5 44.76, 237.33 32.41, 264.49 2.02 M222.9 55.96 C234.45 45.1, 241.98 32.4, 270.13 1.62 M222.9 55.96 C234.47 42.66, 245.06 31.53, 270.13 1.62 M227.89 56.32 C238.71 40.51, 253.15 26.84, 275.12 1.98 M227.89 56.32 C238.29 44.55, 247.73 31.98, 275.12 1.98 M233.53 55.93 C251.46 34.11, 269.51 15.41, 280.76 1.59 M233.53 55.93 C247.34 39.74, 260.98 24.46, 280.76 1.59 M238.52 56.29 C256.2 36.7, 276.21 15.35, 285.75 1.95 M238.52 56.29 C256.81 35.1, 274.58 16.28, 285.75 1.95 M244.16 55.89 C257.76 42.59, 268.12 26.13, 291.4 1.55 M244.16 55.89 C260.48 38.16, 275.89 20.98, 291.4 1.55 M249.15 56.25 C262.21 41.11, 274.39 27.5, 296.38 1.91 M249.15 56.25 C267.96 34.5, 286.74 12.57, 296.38 1.91 M254.79 55.86 C266.84 38.63, 280.87 24.67, 302.03 1.52 M254.79 55.86 C272.56 35, 288.78 15.71, 302.03 1.52 M259.78 56.22 C273.8 38.67, 289.86 20.17, 307.01 1.88 M259.78 56.22 C271.04 44.45, 280.3 32.17, 307.01 1.88 M265.42 55.82 C280.8 39.87, 294.14 25.18, 312.66 1.48 M265.42 55.82 C276.58 41.55, 289.91 27.59, 312.66 1.48 M270.41 56.18 C287.87 37.08, 301.89 20.35, 317.64 1.84 M270.41 56.18 C282.38 44.37, 293.62 31.64, 317.64 1.84 M276.05 55.79 C292.44 38.12, 308.12 19.78, 323.29 1.45 M276.05 55.79 C292.95 36.06, 310.14 16.1, 323.29 1.45 M281.04 56.15 C292.42 45.01, 299.96 31.84, 328.27 1.81 M281.04 56.15 C296.09 40.05, 310.87 23.77, 328.27 1.81 M286.68 55.75 C295.47 44.12, 308.1 33.13, 333.92 1.42 M286.68 55.75 C298.04 44.75, 308.94 31.44, 333.92 1.42 M291.67 56.11 C300.32 44.54, 310.98 32.83, 338.9 1.78 M291.67 56.11 C306.45 39.54, 322.72 20.96, 338.9 1.78 M296.65 56.47 C308.01 42.27, 321.91 29.5, 344.55 1.38 M296.65 56.47 C308.78 40.48, 322.62 26.02, 344.55 1.38 M302.3 56.08 C321.74 35.27, 335.29 16.6, 349.53 1.74 M302.3 56.08 C312.74 43.62, 323.25 31.55, 349.53 1.74 M307.28 56.44 C323.89 37.52, 339.18 18.86, 354.52 2.1 M307.28 56.44 C326.22 34.7, 344.92 13.6, 354.52 2.1 M312.93 56.05 C324.14 45.9, 333.32 33.99, 360.16 1.71 M312.93 56.05 C324.03 43.62, 334.11 30.89, 360.16 1.71 M317.91 56.41 C335.37 38.61, 350.6 20.61, 365.15 2.07 M317.91 56.41 C331.02 40.39, 345.2 24.37, 365.15 2.07 M323.56 56.01 C338.77 42.37, 350.1 25.5, 370.79 1.67 M323.56 56.01 C340.79 37.29, 357.28 16.9, 370.79 1.67 M328.54 56.37 C337.46 46.53, 348.05 34.98, 375.78 2.03 M328.54 56.37 C344.28 37.47, 361.22 18.93, 375.78 2.03 M334.19 55.98 C344.33 43.37, 358.05 30.49, 381.42 1.64 M334.19 55.98 C350.75 37.78, 365.44 19.9, 381.42 1.64 M339.17 56.34 C354.59 38.31, 365.49 23.02, 386.41 2 M339.17 56.34 C357.21 36.83, 375.08 16.58, 386.41 2 M344.82 55.94 C359.37 39.74, 375.32 22.66, 392.05 1.6 M344.82 55.94 C358.83 39.83, 371.75 23.36, 392.05 1.6 M349.8 56.3 C365.57 38.48, 380.6 20.62, 397.04 1.96 M349.8 56.3 C362.84 41.87, 375.03 28.38, 397.04 1.96 M355.45 55.91 C364.77 43.19, 377.22 28.97, 402.68 1.57 M355.45 55.91 C366.47 41.74, 378.78 30.46, 402.68 1.57 M360.43 56.27 C373.03 41.88, 387.37 26.96, 407.67 1.93 M360.43 56.27 C375.38 38.85, 389.77 21.8, 407.67 1.93 M366.08 55.87 C381.66 38.37, 396.56 20.25, 411.34 3.8 M366.08 55.87 C375.74 44.7, 383.7 35.02, 411.34 3.8 M371.06 56.23 C389.4 35.97, 407.42 15.16, 415.02 5.67 M371.06 56.23 C384.84 40.24, 398.78 23.65, 415.02 5.67 M376.71 55.84 C387.66 40.99, 400.55 29.02, 416.73 9.8 M376.71 55.84 C388.48 42.18, 401.25 27.06, 416.73 9.8 M381.69 56.2 C397.12 40.98, 411.66 22.96, 417.12 15.44 M381.69 56.2 C391.32 43.6, 402.1 31.39, 417.12 15.44 M387.34 55.8 C397.51 45.21, 406.67 33.29, 417.52 21.09 M387.34 55.8 C396.01 46.11, 404.7 36.24, 417.52 21.09 M392.32 56.16 C402.61 47.1, 410.16 35.94, 417.25 27.49 M392.32 56.16 C399.59 47.73, 407.53 38.27, 417.25 27.49 M397.31 56.52 C402.35 50.24, 410.65 39.86, 417.65 33.13 M397.31 56.52 C404.6 49.16, 410.25 42.01, 417.65 33.13 M402.3 56.88 C407.81 51.44, 412.76 42.98, 417.39 39.53 M402.3 56.88 C406.76 51.26, 411.82 47.51, 417.39 39.53 M408.6 55.74 C411.22 51.56, 413.15 49.01, 417.13 45.92 M408.6 55.74 C411.06 53.37, 413.6 50.27, 417.13 45.92" stroke="#ff8787" stroke-width="0.5" fill="none"></path><path d="M14 0 M14 0 C143.7 -1.12, 274.77 0.89, 402 0 M14 0 C100.08 -0.35, 186.98 -0.22, 402 0 M402 0 C411.39 1.29, 414.49 6.3, 416 14 M402 0 C412.03 -0.66, 415.51 3.97, 416 14 M416 14 C416.21 22.9, 416.29 28.03, 416 42 M416 14 C415.61 24.5, 415.28 33.19, 416 42 M416 42 C416.78 52.99, 410.66 54.14, 402 56 M416 42 C416.23 50.64, 411.48 55.53, 402 56 M402 56 C275.05 57.58, 148.18 57.09, 14 56 M402 56 C277.77 54.82, 153.6 54.84, 14 56 M14 56 C4.4 55.85, 1.36 49.49, 0 42 M14 56 C5.97 54.14, 1.56 49.19, 0 42 M0 42 C-1.66 34.89, -0.5 28.55, 0 14 M0 42 C-0.76 31.55, -0.15 20.76, 0 14 M0 14 C0.81 4.84, 4.21 -0.06, 14 0 M0 14 C-0.65 3.03, 2.77 -1, 14 0" stroke="#e03131" stroke-width="1" fill="none"></path></g><g stroke-linecap="round"><g transform="translate(181.9999999999999 168.00000000000045) rotate(0 -1.284707430182607 25.74635331264699)"><path d="M0.16 0.23 C-0.11 4.76, -2.32 19.5, -2.67 27.95 C-3.01 36.4, -1.89 47.03, -1.91 50.92 M-1.21 -0.7 C-1 3.87, -0.07 20.12, -0.3 28.94 C-0.54 37.75, -2.19 48.26, -2.63 52.19" stroke="#1971c2" stroke-width="1" fill="none"></path></g></g><mask></mask><g stroke-linecap="round"><g transform="translate(341.9999999999999 172.00000000000045) rotate(0 -0.9450501242932319 24.485450243269952)"><path d="M-0.39 -0.39 C-0.89 4.45, -2.49 20.9, -2.84 29.28 C-3.19 37.65, -2.69 46.11, -2.48 49.88 M1.61 -1.64 C1.47 2.8, 0.28 18.59, -0.57 27.3 C-1.42 36.01, -3.4 46.86, -3.5 50.61" stroke="#1971c2" stroke-width="1" fill="none"></path></g></g><mask></mask><g stroke-linecap="round" transform="translate(370 178) rotate(0 38.5 17.5)"><path d="M9.92 1.88 L72.01 1.97 L77.85 6.61 L74.5 28.85 L70.76 35.92 L66.68 36.26 L5.64 32.76 L-0.17 29.54 L0.17 9.03 L1.94 1.16 L7.46 -1.54" stroke="none" stroke-width="0" fill="#a5d8ff"></path><path d="M8.75 0 M8.75 0 C25.62 1.56, 43.79 1.03, 68.25 0 M8.75 0 C23.28 -0.38, 37.43 -0.15, 68.25 0 M68.25 0 C74.25 -0.09, 78.53 4.16, 77 8.75 M68.25 0 C72.04 -1.91, 75.12 4.85, 77 8.75 M77 8.75 C75.53 13.77, 77.14 17.05, 77 26.25 M77 8.75 C77.75 14.35, 76.77 21.62, 77 26.25 M77 26.25 C77.74 33.8, 74.78 33.27, 68.25 35 M77 26.25 C77.51 34.01, 75.85 34.96, 68.25 35 M68.25 35 C51.7 33.95, 34.41 36.19, 8.75 35 M68.25 35 C53.05 34.72, 38.65 35.42, 8.75 35 M8.75 35 C3.03 33.03, 0.73 31.67, 0 26.25 M8.75 35 C2.25 33, 1.32 33.97, 0 26.25 M0 26.25 C-1.23 21, -1.21 16.49, 0 8.75 M0 26.25 C-0.71 21.2, -0.24 15.14, 0 8.75 M0 8.75 C-1.27 4.61, 2.94 -0.9, 8.75 0 M0 8.75 C1.68 4.13, 4.6 0.86, 8.75 0" stroke="#2f9e44" stroke-width="1" fill="none"></path></g><g transform="translate(376.2300338745117 183) rotate(0 32.26996612548828 12.5)"><text x="32.26996612548828" y="0" font-family="Virgil, Segoe UI Emoji" font-size="20px" fill="#2f9e44" text-anchor="middle" style="white-space: pre;" direction="ltr" dominant-baseline="text-before-edge">button</text></g><g mask="url(#mask-L7BNxBEe1xnMcOnXSaPUz)" stroke-linecap="round"><g transform="translate(483 181) rotate(0 185.26070815619545 -22.885367722701403)"><path d="M0.47 -1.19 C62.2 -8.75, 309.53 -37.28, 371.27 -44.89 M-0.75 0.8 C60.77 -7.13, 308.66 -38.75, 370.46 -46.57" stroke="#2f9e44" stroke-width="1" fill="none"></path></g><g transform="translate(483 181) rotate(0 185.26070815619545 -22.885367722701403)"><path d="M341.81 -32.39 C355.11 -38.23, 361.81 -44.56, 370.62 -47.74 M343.25 -32.21 C349.44 -35.87, 353.79 -39.07, 370.57 -46.21" stroke="#2f9e44" stroke-width="1" fill="none"></path></g><g transform="translate(483 181) rotate(0 185.26070815619545 -22.885367722701403)"><path d="M339.22 -52.75 C353.56 -50.99, 361.23 -49.72, 370.62 -47.74 M340.66 -52.57 C347.24 -52.1, 352.11 -51.19, 370.57 -46.21" stroke="#2f9e44" stroke-width="1" fill="none"></path></g></g><mask id="mask-L7BNxBEe1xnMcOnXSaPUz"><rect x="0" y="0" fill="#fff" width="954" height="326.7391635285953"></rect><rect x="637.1400299072266" y="145.63041823570256" fill="#000" width="62.719940185546875" height="25" opacity="1"></rect></mask><g transform="translate(637.1400299072266 145.63041823570256) rotate(0 31.120678248968886 12.484214041596033)"><text x="31.359970092773438" y="0" font-family="Virgil, Segoe UI Emoji" font-size="20px" fill="#2f9e44" text-anchor="middle" style="white-space: pre;" direction="ltr" dominant-baseline="text-before-edge">onClick</text></g><g stroke-linecap="round" transform="translate(829 48) rotate(0 378.5 215)"><path d="M7.86 8.16 C7.86 8.16, 7.86 8.16, 7.86 8.16 M7.86 8.16 C7.86 8.16, 7.86 8.16, 7.86 8.16 M3.66 19.09 C8.67 16.61, 12.97 8.59, 18.1 2.48 M3.66 19.09 C7.06 14.68, 10.28 9.68, 18.1 2.48 M2.75 26.24 C13.43 16.94, 17.88 12.14, 24.4 1.33 M2.75 26.24 C8.93 19.19, 12.15 13.64, 24.4 1.33 M1.83 33.39 C11.09 25.7, 16.8 20.3, 30.7 0.18 M1.83 33.39 C12.26 22.34, 23.44 6.46, 30.7 0.18 M1.57 39.79 C13.94 29.34, 25.77 16.59, 34.37 2.05 M1.57 39.79 C12.08 26.56, 23.18 15.59, 34.37 2.05 M1.96 45.43 C13.47 24.46, 30.37 14.31, 39.36 2.41 M1.96 45.43 C13.03 35.13, 22.63 23.61, 39.36 2.41 M1.7 51.83 C13.82 41.72, 24.17 25.67, 45 2.02 M1.7 51.83 C14.37 35.09, 26.33 22.61, 45 2.02 M1.44 58.23 C11.17 46.4, 20.85 30.9, 49.99 2.38 M1.44 58.23 C13.7 43.98, 27.74 26.39, 49.99 2.38 M1.83 63.87 C16.62 46.86, 28.62 27.07, 55.63 1.98 M1.83 63.87 C11.05 51.71, 26.31 36.11, 55.63 1.98 M1.57 70.27 C18.02 54.26, 33.18 38.94, 60.62 2.34 M1.57 70.27 C22.64 44.37, 44.73 20.69, 60.62 2.34 M1.97 75.91 C16.49 58.41, 29.84 39.17, 66.26 1.95 M1.97 75.91 C21.4 49.79, 44.09 29.96, 66.26 1.95 M1.71 82.31 C26.96 55.32, 51.43 22.31, 71.25 2.31 M1.71 82.31 C19.45 61.66, 36.05 43.81, 71.25 2.31 M1.44 88.71 C25.41 60.11, 54.82 28, 76.89 1.91 M1.44 88.71 C27.53 60.11, 51.09 31.46, 76.89 1.91 M1.84 94.35 C22.35 76.09, 36.56 51.15, 81.88 2.27 M1.84 94.35 C27.63 62.99, 54.89 32.97, 81.88 2.27 M1.58 100.75 C34.33 63.42, 65.36 20.87, 87.52 1.88 M1.58 100.75 C18.01 80.92, 35.3 60.94, 87.52 1.88 M1.97 106.39 C26.17 78.6, 47.27 54.03, 92.51 2.24 M1.97 106.39 C25.79 80.99, 47.07 58.13, 92.51 2.24 M1.71 112.79 C35.7 78.19, 61.67 44.68, 98.15 1.85 M1.71 112.79 C37.65 68.79, 75.15 27.33, 98.15 1.85 M1.45 119.19 C37.01 79.67, 66.26 40.35, 103.14 2.21 M1.45 119.19 C31.6 86.1, 64.21 51.54, 103.14 2.21 M1.84 124.83 C35.56 79.05, 74.95 37.85, 108.78 1.81 M1.84 124.83 C31.05 90.95, 59.87 57.19, 108.78 1.81 M1.58 131.23 C24.56 104.02, 57.64 68.46, 113.77 2.17 M1.58 131.23 C43.18 84.47, 85.93 35.01, 113.77 2.17 M1.98 136.87 C48.02 84.56, 88.75 35.27, 119.41 1.78 M1.98 136.87 C35.06 102.82, 65.93 65.19, 119.41 1.78 M1.72 143.27 C41.86 99.05, 82.46 47.24, 124.4 2.14 M1.72 143.27 C39.13 96.41, 82 48.46, 124.4 2.14 M1.45 149.67 C39.63 107.5, 72.27 64.6, 130.04 1.74 M1.45 149.67 C31.87 113.07, 65.06 75.64, 130.04 1.74 M1.85 155.31 C45.61 105.06, 86.18 58.33, 135.03 2.1 M1.85 155.31 C52.78 99.94, 100.76 43.76, 135.03 2.1 M1.59 161.71 C40.89 116.82, 74.06 74.18, 140.67 1.71 M1.59 161.71 C43.25 111.69, 85.32 62.97, 140.67 1.71 M1.98 167.35 C35.17 128.85, 66.74 92.46, 145.66 2.07 M1.98 167.35 C29.3 134.08, 57.39 102.78, 145.66 2.07 M1.72 173.75 C55.49 110.65, 107.1 50.52, 150.65 2.43 M1.72 173.75 C35.46 132.49, 72.61 92.62, 150.65 2.43 M1.46 180.14 C43.83 134.75, 83.44 92.21, 156.29 2.03 M1.46 180.14 C51.92 121.27, 102.38 59.7, 156.29 2.03 M1.85 185.79 C32.98 145.93, 69.64 102.76, 161.28 2.39 M1.85 185.79 C39.32 147.24, 75.04 105.26, 161.28 2.39 M1.59 192.19 C65.76 121.35, 123.86 49.13, 166.92 2 M1.59 192.19 C72.2 118.89, 138.12 42.24, 166.92 2 M1.99 197.83 C64.5 126.92, 131.71 57.24, 171.91 2.36 M1.99 197.83 C64.56 124.97, 127.8 51.57, 171.91 2.36 M1.72 204.23 C51.72 153.03, 90.97 97.77, 177.55 1.96 M1.72 204.23 C68.92 127.7, 140.81 47.36, 177.55 1.96 M1.46 210.62 C66.78 125.58, 140.19 46.43, 182.54 2.32 M1.46 210.62 C64.32 139.58, 123.72 67.52, 182.54 2.32 M1.86 216.27 C65.59 139.13, 136.86 58.43, 188.18 1.93 M1.86 216.27 C51.71 166.58, 95.28 111.61, 188.18 1.93 M1.6 222.66 C57.36 153.64, 116.27 91.46, 193.17 2.29 M1.6 222.66 C68.18 144.01, 137.93 64.44, 193.17 2.29 M1.99 228.31 C55.03 164.48, 107.3 105.04, 198.81 1.9 M1.99 228.31 C54.95 170.44, 105.41 110.98, 198.81 1.9 M1.73 234.71 C72.05 148.78, 145.38 66.6, 203.8 2.26 M1.73 234.71 C81.35 145.44, 158.92 57.77, 203.8 2.26 M1.47 241.1 C81.3 144.61, 161.57 55.96, 209.44 1.86 M1.47 241.1 C58.86 174.8, 115.11 109.27, 209.44 1.86 M1.86 246.75 C67.33 169.36, 133.77 94.45, 214.43 2.22 M1.86 246.75 C73.12 168.72, 139.56 88.99, 214.43 2.22 M1.6 253.14 C71.5 173.26, 147.08 89.7, 220.07 1.83 M1.6 253.14 C61.3 187.43, 120.57 122.02, 220.07 1.83 M2 258.79 C69.98 177.36, 140.88 93.51, 225.06 2.19 M2 258.79 C60.1 196.18, 117.77 131.25, 225.06 2.19 M1.73 265.19 C45.92 210.49, 94.32 153.81, 230.7 1.79 M1.73 265.19 C90.29 164.49, 177.24 65.03, 230.7 1.79 M1.47 271.58 C49.97 210.07, 100.4 153.88, 235.69 2.15 M1.47 271.58 C93.05 165, 184.25 63.06, 235.69 2.15 M1.87 277.23 C96.32 171.11, 185.23 71.11, 241.33 1.76 M1.87 277.23 C76.93 191.42, 152.26 103.88, 241.33 1.76 M1.61 283.62 C67.3 212.52, 127.71 140.22, 246.32 2.12 M1.61 283.62 C67.26 207.24, 135.18 128.51, 246.32 2.12 M2 289.27 C54.9 230.47, 108.37 166.63, 251.96 1.72 M2 289.27 C81.1 199.62, 155.44 111.88, 251.96 1.72 M1.74 295.66 C93.39 188.07, 187.63 79.81, 256.95 2.08 M1.74 295.66 C64.44 217.4, 128.9 142.14, 256.95 2.08 M1.48 302.06 C106.44 186.83, 205.72 67.71, 262.59 1.69 M1.48 302.06 C87.33 199.74, 173.97 99.37, 262.59 1.69 M1.87 307.71 C86.27 206.6, 173.44 110.59, 267.58 2.05 M1.87 307.71 C103.71 192.43, 204.97 77.11, 267.58 2.05 M1.61 314.1 C108.16 190.97, 215.28 67.42, 272.56 2.41 M1.61 314.1 C96.14 200.17, 191.21 91.74, 272.56 2.41 M2.01 319.75 C100.35 208.38, 199.25 95.88, 278.21 2.01 M2.01 319.75 C72.22 234.03, 145.01 151.35, 278.21 2.01 M1.74 326.14 C109.08 205.78, 216.51 87.67, 283.19 2.37 M1.74 326.14 C68.88 244.16, 136.36 164.81, 283.19 2.37 M1.48 332.54 C96.77 220.8, 190.55 112.93, 288.84 1.98 M1.48 332.54 C81.51 244.15, 158.8 154.28, 288.84 1.98 M1.88 338.19 C93.93 232.6, 187.02 125.1, 293.82 2.34 M1.88 338.19 C72.48 255.62, 145.05 172.39, 293.82 2.34 M1.62 344.58 C110.29 220.37, 218.91 96.03, 299.47 1.94 M1.62 344.58 C95.99 235.09, 189.87 126.41, 299.47 1.94 M2.01 350.23 C88.08 248.21, 176.48 146.69, 304.45 2.3 M2.01 350.23 C111.35 223.4, 218.94 99.76, 304.45 2.3 M1.75 356.62 C76.4 267.65, 150.44 185.05, 310.1 1.91 M1.75 356.62 C85.23 259.19, 170.03 163.55, 310.1 1.91 M1.49 363.02 C122.09 228.22, 241.33 89.55, 315.08 2.27 M1.49 363.02 C99.19 249.43, 196.45 137.88, 315.08 2.27 M1.88 368.66 C122.82 228.91, 241.29 91.32, 320.73 1.88 M1.88 368.66 C112.5 243.24, 223.18 116.59, 320.73 1.88 M1.62 375.06 C108.73 251.74, 214.84 127.73, 325.71 2.24 M1.62 375.06 C131.79 225.5, 260.6 77.97, 325.71 2.24 M2.02 380.71 C86.31 283.76, 164.97 189.92, 331.36 1.84 M2.02 380.71 C105.19 264.24, 205.59 148.48, 331.36 1.84 M1.75 387.1 C117.09 250.25, 233.55 115.64, 336.34 2.2 M1.75 387.1 C87.55 289.51, 172.82 190.77, 336.34 2.2 M1.49 393.5 C129.28 247.95, 255.04 102.69, 341.99 1.81 M1.49 393.5 C89.01 289.77, 177.53 188.43, 341.99 1.81 M1.89 399.14 C95.05 291.2, 190.21 180.28, 346.97 2.17 M1.89 399.14 C97.24 286.92, 193.49 177.79, 346.97 2.17 M2.28 404.79 C114.76 269.65, 227.86 139.55, 352.62 1.77 M2.28 404.79 C99.28 289.56, 198.68 175.22, 352.62 1.77 M3.33 409.68 C78.23 324.3, 154.12 236.14, 357.6 2.13 M3.33 409.68 C75.15 327.7, 146.65 246.01, 357.6 2.13 M4.38 414.56 C125.73 275.91, 243.44 139.24, 363.25 1.74 M4.38 414.56 C139.41 255.97, 278.6 97.19, 363.25 1.74 M7.4 417.19 C115.23 292.85, 226.25 166.15, 368.23 2.1 M7.4 417.19 C119.36 280.68, 236.35 147.74, 368.23 2.1 M9.76 420.57 C100.98 313.64, 196.73 202.61, 373.88 1.7 M9.76 420.57 C129.2 282.18, 249.37 143.24, 373.88 1.7 M12.13 423.95 C140.78 280.88, 269.35 133.71, 378.86 2.06 M12.13 423.95 C114.65 306.85, 215.19 192.18, 378.86 2.06 M14.49 427.33 C101.29 327.58, 189.27 226.83, 383.85 2.42 M14.49 427.33 C100.85 324.15, 187.89 224.87, 383.85 2.42 M18.82 428.44 C164.31 261.21, 311.15 90.9, 389.49 2.03 M18.82 428.44 C108.38 325.89, 200.17 220.83, 389.49 2.03 M23.15 429.55 C104.7 330.6, 190.84 234.58, 394.48 2.39 M23.15 429.55 C156.63 271.68, 292.79 116.08, 394.48 2.39 M27.48 430.67 C153.6 285.48, 279.83 137.94, 400.12 1.99 M27.48 430.67 C168.81 267.8, 311.07 102.66, 400.12 1.99 M32.47 431.03 C132.48 318.49, 230.78 205.79, 405.11 2.35 M32.47 431.03 C154.26 292.2, 277.63 149.77, 405.11 2.35 M38.11 430.63 C160.14 288.44, 286.84 147.8, 410.75 1.96 M38.11 430.63 C176.73 270.33, 313.86 110.82, 410.75 1.96 M43.1 431 C122.58 338.41, 201.43 246.79, 415.74 2.32 M43.1 431 C154.9 300.57, 266.52 170.29, 415.74 2.32 M48.74 430.6 C189.54 269.88, 326.88 111.98, 421.38 1.93 M48.74 430.6 C143.52 319.9, 237.46 211.88, 421.38 1.93 M53.73 430.96 C204.61 256.78, 351.77 86.52, 426.37 2.29 M53.73 430.96 C200.5 264.93, 345.28 98.61, 426.37 2.29 M59.37 430.57 C173.5 300.16, 286.48 170.53, 432.01 1.89 M59.37 430.57 C140.3 337.97, 221.13 246.91, 432.01 1.89 M64.36 430.93 C212.84 263.74, 358.78 93.11, 437 2.25 M64.36 430.93 C163.26 318.25, 260.24 205.96, 437 2.25 M70 430.53 C151.05 335.78, 233.47 242.51, 442.64 1.86 M70 430.53 C214.6 256.63, 363.51 85.86, 442.64 1.86 M74.99 430.89 C157.43 337.05, 239.9 239.02, 447.63 2.22 M74.99 430.89 C202 289.37, 323.79 147.55, 447.63 2.22 M80.63 430.5 C180.76 311.57, 283.45 191.04, 453.27 1.82 M80.63 430.5 C187.76 307.17, 298.04 179.71, 453.27 1.82 M85.62 430.86 C219.91 276.03, 351.56 122.14, 458.26 2.18 M85.62 430.86 C220.36 272.17, 355.73 117.48, 458.26 2.18 M91.26 430.46 C191.72 314.03, 292.09 200.17, 463.9 1.79 M91.26 430.46 C218.52 281.71, 346.36 134.64, 463.9 1.79 M96.25 430.82 C215.43 295.26, 333.06 159.68, 468.89 2.15 M96.25 430.82 C200.32 312.01, 302.14 195.4, 468.89 2.15 M101.89 430.43 C193.35 325, 285.38 222.9, 474.53 1.75 M101.89 430.43 C226.89 285.13, 349.17 143.4, 474.53 1.75 M106.88 430.79 C209.15 312.54, 315.88 190.23, 479.52 2.11 M106.88 430.79 C227.15 292.23, 349.15 152.12, 479.52 2.11 M112.52 430.39 C217.83 301.43, 330.68 175.53, 485.17 1.72 M112.52 430.39 C186.32 344.4, 261.29 258.16, 485.17 1.72 M117.51 430.75 C213.98 314.37, 313.78 201.39, 490.15 2.08 M117.51 430.75 C245.01 285.33, 370.92 140.52, 490.15 2.08 M123.15 430.36 C262.91 269.42, 405.05 104.57, 495.8 1.68 M123.15 430.36 C214.21 325.19, 303.95 221.34, 495.8 1.68 M128.14 430.72 C252.79 283.89, 381.91 136.73, 500.78 2.04 M128.14 430.72 C229.98 315.76, 329.47 201.11, 500.78 2.04 M133.78 430.32 C240.58 309.7, 346.87 188.54, 505.77 2.4 M133.78 430.32 C243.93 305.7, 352.83 179.41, 505.77 2.4 M138.77 430.68 C228.52 322.91, 318.65 221.36, 511.41 2.01 M138.77 430.68 C228.54 328.46, 317.83 227.4, 511.41 2.01 M143.76 431.04 C241.1 318.94, 341.27 202.48, 516.4 2.37 M143.76 431.04 C275.19 279.7, 405.04 130.84, 516.4 2.37 M149.4 430.65 C270.8 287.33, 394.5 146.23, 522.04 1.98 M149.4 430.65 C265.12 296.85, 380.44 164.42, 522.04 1.98 M154.39 431.01 C237.03 335.32, 317.7 239.9, 527.03 2.34 M154.39 431.01 C278.51 282.06, 405.5 136.34, 527.03 2.34 M160.03 430.62 C250.34 329.17, 335.16 229.53, 532.67 1.94 M160.03 430.62 C271.78 305.37, 382.52 178.59, 532.67 1.94 M165.02 430.98 C272.77 306.13, 380.98 179.36, 537.66 2.3 M165.02 430.98 C299.97 275.46, 436.17 119.27, 537.66 2.3 M170.66 430.58 C250.82 333.91, 334.31 237.84, 543.3 1.91 M170.66 430.58 C304.4 276.44, 440.39 119.45, 543.3 1.91 M175.65 430.94 C277.39 311.91, 380.37 192.55, 548.29 2.27 M175.65 430.94 C271.06 316.81, 366.25 206.17, 548.29 2.27 M181.29 430.55 C263.43 338.69, 343.52 242.68, 553.93 1.87 M181.29 430.55 C270.44 330.84, 355.86 231.01, 553.93 1.87 M186.28 430.91 C270.39 331.73, 355.12 232.92, 558.92 2.23 M186.28 430.91 C268.16 341.1, 346.67 250.07, 558.92 2.23 M191.92 430.51 C339.61 257.69, 486.97 88.58, 564.56 1.84 M191.92 430.51 C324.89 274.87, 459.33 121.32, 564.56 1.84 M196.91 430.87 C290.78 328.07, 379.45 225.48, 569.55 2.2 M196.91 430.87 C330.34 271.25, 467.6 113.34, 569.55 2.2 M202.55 430.48 C343.68 267.64, 487.16 102.46, 575.19 1.8 M202.55 430.48 C336.92 277.56, 470.65 120.72, 575.19 1.8 M207.54 430.84 C302.52 318.3, 399.79 204.83, 580.18 2.16 M207.54 430.84 C287.39 338.55, 366.15 248.56, 580.18 2.16 M213.18 430.44 C304.89 324.18, 396.02 219.61, 585.82 1.77 M213.18 430.44 C289.95 342.25, 367.13 253.42, 585.82 1.77 M218.17 430.8 C326.11 306.37, 434.59 180.34, 590.81 2.13 M218.17 430.8 C362.08 266.12, 504.1 102.36, 590.81 2.13 M223.81 430.41 C332.86 302.16, 445.4 171.36, 596.45 1.73 M223.81 430.41 C297.64 340.07, 375.57 251.77, 596.45 1.73 M228.8 430.77 C367.32 268.17, 506.18 108.66, 601.44 2.09 M228.8 430.77 C332.67 309.21, 434.55 190.95, 601.44 2.09 M234.44 430.37 C357.41 290.43, 482.41 145.2, 607.08 1.7 M234.44 430.37 C320.44 330.19, 405.04 232.29, 607.08 1.7 M239.43 430.73 C319.79 340.84, 397.52 251.34, 612.07 2.06 M239.43 430.73 C326.45 333.65, 412.03 235.49, 612.07 2.06 M245.07 430.34 C374.3 276.18, 509.82 120.1, 617.06 2.42 M245.07 430.34 C349.41 307.16, 455.76 185.98, 617.06 2.42 M250.06 430.7 C381.11 284.54, 509.07 134.98, 622.7 2.02 M250.06 430.7 C371 288.08, 493.39 147.09, 622.7 2.02 M255.7 430.31 C349.31 321.27, 445.29 213.08, 627.69 2.38 M255.7 430.31 C383.16 284.71, 509.37 139.05, 627.69 2.38 M260.69 430.67 C402.14 271.51, 543.78 108.68, 633.33 1.99 M260.69 430.67 C339.06 334.62, 422.57 240.06, 633.33 1.99 M265.68 431.03 C391.21 283.65, 516.41 138.83, 638.32 2.35 M265.68 431.03 C379.37 296.9, 495.71 162.94, 638.32 2.35 M271.32 430.63 C406.05 277.62, 541.37 125.88, 643.96 1.96 M271.32 430.63 C381.08 307.41, 489.48 182.43, 643.96 1.96 M276.31 430.99 C420.34 266.08, 560.54 99.03, 648.95 2.32 M276.31 430.99 C377.02 320.57, 474.87 208.25, 648.95 2.32 M281.95 430.6 C424.99 268.98, 566 105.66, 654.59 1.92 M281.95 430.6 C383.85 310, 487.79 191.87, 654.59 1.92 M286.94 430.96 C365 335.38, 445.27 243.98, 659.58 2.28 M286.94 430.96 C366.94 341.84, 444 252.28, 659.58 2.28 M292.58 430.56 C432.98 265.29, 580.55 97.72, 665.22 1.89 M292.58 430.56 C393.92 310.5, 496.51 194.18, 665.22 1.89 M297.57 430.92 C413.55 297.28, 527.5 168.36, 670.21 2.25 M297.57 430.92 C413.47 297.81, 531.1 162.45, 670.21 2.25 M303.21 430.53 C450.52 261.78, 593.87 96.31, 675.85 1.85 M303.21 430.53 C422.56 293.61, 540.76 156.38, 675.85 1.85 M308.2 430.89 C445.64 268.68, 585.51 105.98, 680.84 2.21 M308.2 430.89 C422.47 304.88, 533.16 178.43, 680.84 2.21 M313.84 430.49 C398.79 335.19, 481.97 238.28, 686.48 1.82 M313.84 430.49 C386.59 343.11, 461.25 256.54, 686.48 1.82 M318.83 430.85 C393.82 344.39, 465.95 259.9, 691.47 2.18 M318.83 430.85 C401.47 340.85, 482.47 248, 691.47 2.18 M324.47 430.46 C473.21 261.39, 621.31 93.77, 697.11 1.78 M324.47 430.46 C420.17 320.47, 517.77 208.23, 697.11 1.78 M329.46 430.82 C407.26 343.09, 483.87 256, 702.1 2.14 M329.46 430.82 C441.64 302.4, 550.84 178.36, 702.1 2.14 M335.1 430.42 C426.93 324.14, 517.54 220.96, 707.74 1.75 M335.1 430.42 C478.38 264.42, 624.97 96.82, 707.74 1.75 M340.09 430.78 C430.17 320.83, 525.24 215.75, 712.73 2.11 M340.09 430.78 C448.2 307.27, 554.89 185.83, 712.73 2.11 M345.73 430.39 C483.92 270.17, 622.57 111.6, 718.37 1.71 M345.73 430.39 C433.52 331.11, 518.33 233.86, 718.37 1.71 M350.72 430.75 C447.87 311.83, 549.09 194.29, 725.33 -0.19 M350.72 430.75 C471.43 298.1, 588.92 164.13, 725.33 -0.19 M356.36 430.35 C440.24 332.4, 522.35 233.22, 729.66 0.93 M356.36 430.35 C492.28 276.25, 626.77 121.31, 729.66 0.93 M361.35 430.71 C448.98 329.78, 534.25 229.68, 733.99 2.04 M361.35 430.71 C449.32 328.57, 537.67 226.39, 733.99 2.04 M366.99 430.32 C476.75 302.81, 590.77 173.03, 738.32 3.15 M366.99 430.32 C487.97 284.48, 611.59 141.8, 738.32 3.15 M371.98 430.68 C508.96 274.84, 645.23 120.41, 742.65 4.27 M371.98 430.68 C471.18 313.39, 575.63 194.75, 742.65 4.27 M376.96 431.04 C509.16 278.76, 639.17 127.62, 746.32 6.14 M376.96 431.04 C462.45 333.51, 548.39 234.09, 746.32 6.14 M382.61 430.65 C504.05 286.96, 628.32 145.18, 749.34 8.76 M382.61 430.65 C527.06 266.56, 672.63 99.17, 749.34 8.76 M387.59 431.01 C528.03 273.09, 664.56 113.23, 751.71 12.14 M387.59 431.01 C497.81 305.08, 607.4 180.16, 751.71 12.14 M393.24 430.61 C490.65 322.42, 588.45 211.17, 754.73 14.77 M393.24 430.61 C502.66 305.03, 613.86 177.61, 754.73 14.77 M398.22 430.97 C474.27 343.76, 553.23 256.95, 755.78 19.65 M398.22 430.97 C514.42 296.14, 629.06 163.79, 755.78 19.65 M403.87 430.58 C524.19 296.17, 641.32 160.59, 756.83 24.54 M403.87 430.58 C498.96 319.97, 597.96 207.39, 756.83 24.54 M408.85 430.94 C535.51 282.16, 663.44 133.5, 758.53 28.68 M408.85 430.94 C496.12 335.28, 580.68 237.9, 758.53 28.68 M414.5 430.54 C539.39 289.47, 663.43 148.87, 758.93 34.32 M414.5 430.54 C524.85 300.86, 636.14 173.33, 758.93 34.32 M419.48 430.9 C546.37 280.89, 675.9 132.98, 759.32 39.96 M419.48 430.9 C538.7 293.9, 656.7 156.85, 759.32 39.96 M425.13 430.51 C496.35 350.13, 568.38 267.04, 759.06 46.36 M425.13 430.51 C492.29 355.31, 559.7 277.5, 759.06 46.36 M430.11 430.87 C511.29 333.87, 597.41 236.85, 759.46 52 M430.11 430.87 C524.44 325.71, 617.68 217.9, 759.46 52 M435.76 430.47 C508.4 349.35, 578.63 266.93, 759.19 58.4 M435.76 430.47 C509 341.95, 586.08 254.26, 759.19 58.4 M440.74 430.83 C515.23 346.16, 592.06 258.49, 758.93 64.8 M440.74 430.83 C511.94 346.63, 585.61 262.05, 758.93 64.8 M446.39 430.44 C556.34 305.26, 666.95 180.23, 759.33 70.44 M446.39 430.44 C537.52 326.9, 628.15 223.3, 759.33 70.44 M451.37 430.8 C520.29 351.6, 589.05 269.45, 759.07 76.84 M451.37 430.8 C553.71 310.73, 658.11 191.93, 759.07 76.84 M457.02 430.4 C523.45 348.45, 594.02 267.64, 759.46 82.48 M457.02 430.4 C567.3 300.8, 677.93 171.79, 759.46 82.48 M462 430.76 C569.88 304.87, 677.54 183.15, 759.2 88.88 M462 430.76 C547.68 332.69, 632.93 233.24, 759.2 88.88 M467.65 430.37 C560.73 320.74, 658.73 208.03, 758.94 95.28 M467.65 430.37 C538.8 347.17, 610.3 262.96, 758.94 95.28 M472.63 430.73 C547.96 346.93, 620.09 261.43, 759.33 100.92 M472.63 430.73 C568.77 324.17, 663.06 215.99, 759.33 100.92 M478.28 430.34 C580.44 309.5, 687.3 187.77, 759.07 107.32 M478.28 430.34 C547.6 349.04, 615.28 271.47, 759.07 107.32 M483.26 430.7 C577.5 316.88, 673.8 209.04, 759.47 112.96 M483.26 430.7 C551.46 353.93, 617.07 278.23, 759.47 112.96 M488.91 430.3 C581 328.31, 670.65 224.72, 759.2 119.36 M488.91 430.3 C545.77 368.06, 603.41 302.49, 759.2 119.36 M493.89 430.66 C578.87 330.38, 666.52 230.9, 758.94 125.76 M493.89 430.66 C590.45 317.71, 688.51 204.69, 758.94 125.76 M498.88 431.02 C557.1 360.18, 619.27 293.58, 759.34 131.4 M498.88 431.02 C598.86 318.03, 695.57 207.98, 759.34 131.4 M504.52 430.63 C600.04 325.5, 690.04 218.69, 759.08 137.8 M504.52 430.63 C553.69 371.32, 605.51 311.54, 759.08 137.8 M509.51 430.99 C593.86 329.95, 677.23 231.46, 759.47 143.44 M509.51 430.99 C578.66 349.42, 651.56 267.72, 759.47 143.44 M515.15 430.59 C568.98 364.62, 629.24 299.88, 759.21 149.84 M515.15 430.59 C609.64 320.72, 702.52 213.92, 759.21 149.84 M520.14 430.95 C616.69 325.7, 709.15 221.58, 758.95 156.24 M520.14 430.95 C588.45 354.13, 653.8 277.01, 758.95 156.24 M525.78 430.56 C616.53 322.52, 708.22 220.59, 759.34 161.88 M525.78 430.56 C593.16 351.45, 664.51 272.92, 759.34 161.88 M530.77 430.92 C607.15 342.11, 686.63 255.04, 759.08 168.28 M530.77 430.92 C578.54 381.15, 625.71 326.5, 759.08 168.28 M536.42 430.52 C613.39 340.69, 689.32 258.52, 759.48 173.92 M536.42 430.52 C598.92 358.76, 663.68 283.3, 759.48 173.92 M541.4 430.88 C587.76 377.81, 632.34 323.35, 759.21 180.32 M541.4 430.88 C600.14 362.56, 663.14 291.55, 759.21 180.32 M547.05 430.49 C589.28 377.68, 638.65 324.87, 758.95 186.72 M547.05 430.49 C599.92 368.61, 653.23 310.41, 758.95 186.72 M552.03 430.85 C610.18 361.74, 670.61 289.87, 759.35 192.36 M552.03 430.85 C610.92 366.08, 665.6 300.47, 759.35 192.36 M557.68 430.45 C608.72 376.01, 649.52 326.57, 759.09 198.76 M557.68 430.45 C600.47 380.9, 642.59 334.19, 759.09 198.76 M562.66 430.81 C617.07 360.69, 675.86 293.82, 759.48 204.4 M562.66 430.81 C624.45 366.94, 681.18 298.35, 759.48 204.4 M568.31 430.42 C611.36 381.72, 648.57 333.33, 759.22 210.8 M568.31 430.42 C635.9 354.37, 703.92 276.54, 759.22 210.8 M573.29 430.78 C615.49 385.56, 649.9 345.97, 758.96 217.2 M573.29 430.78 C611.21 388.61, 649.65 340.64, 758.96 217.2 M578.94 430.39 C632.02 369.94, 687.62 313.22, 759.35 222.84 M578.94 430.39 C618.35 381.06, 664.37 330.98, 759.35 222.84 M583.92 430.75 C620.56 383.96, 660.38 340.9, 759.09 229.24 M583.92 430.75 C624.54 383.12, 666.8 333.88, 759.09 229.24 M589.57 430.35 C656.37 356.91, 720.15 279.39, 759.48 234.88 M589.57 430.35 C652.65 362.6, 712.31 295.81, 759.48 234.88 M594.55 430.71 C636.61 387.08, 678.43 340.5, 759.22 241.28 M594.55 430.71 C650.18 365.42, 706.98 299.7, 759.22 241.28 M600.2 430.32 C649.51 375.77, 694.06 318.02, 758.96 247.68 M600.2 430.32 C654.69 373.36, 706.32 312.12, 758.96 247.68 M605.18 430.68 C661.79 362.24, 718.61 299.14, 759.36 253.32 M605.18 430.68 C645.64 386.28, 682.49 344.08, 759.36 253.32 M610.17 431.04 C657.11 380.39, 695.87 336.61, 759.1 259.72 M610.17 431.04 C665.32 367.18, 718.56 307.42, 759.1 259.72 M615.81 430.64 C675.39 365.45, 727.83 303.99, 759.49 265.36 M615.81 430.64 C675.09 366.49, 728.74 302.11, 759.49 265.36 M620.8 431 C655.24 398.16, 689.16 357.27, 759.23 271.76 M620.8 431 C672.77 370.02, 728.01 308.63, 759.23 271.76 M626.44 430.61 C663.59 381.15, 710.23 334.51, 758.97 278.16 M626.44 430.61 C654.87 399.27, 680.7 368.2, 758.97 278.16 M631.43 430.97 C672.99 383.76, 713.74 342.19, 759.36 283.8 M631.43 430.97 C670.71 388.37, 705.04 347.18, 759.36 283.8 M637.07 430.57 C667.3 402.83, 695.04 364.97, 759.1 290.2 M637.07 430.57 C666.42 390.92, 697.59 355.55, 759.1 290.2 M642.06 430.93 C674.52 389.14, 710.38 347.89, 759.49 295.84 M642.06 430.93 C676.5 388.09, 715.39 343.28, 759.49 295.84 M647.7 430.54 C673.31 396.64, 701.82 372.35, 759.23 302.24 M647.7 430.54 C677.27 394.88, 705.35 361.16, 759.23 302.24 M652.69 430.9 C673.79 402.61, 697.87 372.43, 758.97 308.64 M652.69 430.9 C678.91 402.3, 707.11 367.02, 758.97 308.64 M658.33 430.5 C697.32 394, 729.76 350.25, 759.37 314.28 M658.33 430.5 C687.11 399.01, 713.07 366.15, 759.37 314.28 M663.32 430.86 C687.93 405.92, 709.28 379.95, 759.1 320.68 M663.32 430.86 C686.5 402.14, 714.82 372.97, 759.1 320.68 M668.96 430.47 C700.41 397.01, 726.39 365.08, 759.5 326.32 M668.96 430.47 C699.46 396.92, 730.64 361.61, 759.5 326.32 M673.95 430.83 C691.73 409.82, 717.9 383.7, 759.24 332.72 M673.95 430.83 C706.96 392.03, 741.49 349.41, 759.24 332.72 M679.59 430.43 C701.11 405.66, 724 377.76, 758.98 339.11 M679.59 430.43 C707.29 396.01, 736.55 362, 758.98 339.11 M684.58 430.79 C707.71 411.48, 726.9 384.24, 759.37 344.76 M684.58 430.79 C710.21 405.43, 731.12 376.46, 759.37 344.76 M690.22 430.4 C712.51 403.63, 742.37 371.82, 759.11 351.16 M690.22 430.4 C710.91 405.06, 735.42 376.62, 759.11 351.16 M695.21 430.76 C716.35 408.77, 740.69 387.07, 759.5 356.8 M695.21 430.76 C709.13 413.08, 721.12 397.46, 759.5 356.8 M700.85 430.37 C716.85 406.22, 736.22 392.56, 759.24 363.2 M700.85 430.37 C717.56 413.73, 730.42 398.21, 759.24 363.2 M705.84 430.73 C723.01 410.08, 738.28 388.01, 758.98 369.59 M705.84 430.73 C716.96 416.79, 730.48 403.22, 758.98 369.59 M711.48 430.33 C727.11 412.53, 746.34 393.08, 759.38 375.24 M711.48 430.33 C730.12 412.16, 745.03 390.64, 759.38 375.24 M716.47 430.69 C724.31 415.7, 737.15 406.57, 759.11 381.64 M716.47 430.69 C727.23 419.36, 738.19 408.28, 759.11 381.64 M721.46 431.05 C732.22 416.75, 743.19 403.12, 759.51 387.28 M721.46 431.05 C732.2 420.48, 738.31 409.9, 759.51 387.28 M726.44 431.41 C731.66 426.14, 739.25 411.25, 759.25 393.68 M726.44 431.41 C735.18 419.11, 746.26 408.02, 759.25 393.68 M733.4 429.51 C741.26 420.11, 752.13 407.15, 758.99 400.07 M733.4 429.51 C741.02 419.9, 753.66 407.91, 758.99 400.07 M739.7 428.36 C746.23 417.14, 754.78 409.35, 757.41 407.98 M739.7 428.36 C746.62 422.43, 750.44 411.43, 757.41 407.98" stroke="#a5d8ff" stroke-width="0.5" fill="none"></path><path d="M32 0 M32 0 C264.43 5.06, 500.36 3.79, 725 0 M32 0 C193.42 4.46, 355.06 3.98, 725 0 M725 0 C749.35 -3.23, 754.97 9.5, 757 32 M725 0 C749.59 -3.88, 759.27 7.2, 757 32 M757 32 C752.33 143.96, 754.07 259.86, 757 398 M757 32 C756.76 149.7, 755.98 266.23, 757 398 M757 398 C754.89 417.1, 742.95 429.52, 725 430 M757 398 C761.09 423.68, 748.54 430.58, 725 430 M725 430 C523.59 432.72, 324.41 431.49, 32 430 M725 430 C459.25 430.13, 193.8 430.59, 32 430 M32 430 C13.07 429.69, 0.18 418.89, 0 398 M32 430 C6.14 433.55, 0.19 423.19, 0 398 M0 398 C-0.32 258.85, -1.11 121.13, 0 32 M0 398 C3.58 274.06, 2.67 147.88, 0 32 M0 32 C3.81 10.53, 14.43 2.39, 32 0 M0 32 C3.87 10.79, 14.8 1.4, 32 0" stroke="#1971c2" stroke-width="1" fill="none"></path></g><g transform="translate(85 66) rotate(0 147.05984497070312 12.5)"><text x="0" y="0" font-family="Virgil, Segoe UI Emoji" font-size="20px" fill="#2f9e44" text-anchor="start" style="white-space: pre;" direction="ltr" dominant-baseline="text-before-edge">https://{someDomain}/viewOne</text></g><g transform="translate(888 10) rotate(0 149.329833984375 25)"><text x="0" y="0" font-family="Virgil, Segoe UI Emoji" font-size="20px" fill="#2f9e44" text-anchor="start" style="white-space: pre;" direction="ltr" dominant-baseline="text-before-edge">https://{someDomain}/viewTwo</text><text x="0" y="25" font-family="Virgil, Segoe UI Emoji" font-size="20px" fill="#2f9e44" text-anchor="start" style="white-space: pre;" direction="ltr" dominant-baseline="text-before-edge"></text></g><g transform="translate(857 77) rotate(0 60.22993469238281 12.5)"><text x="0" y="0" font-family="Virgil, Segoe UI Emoji" font-size="20px" fill="#f08c00" text-anchor="start" style="white-space: pre;" direction="ltr" dominant-baseline="text-before-edge">CRM page B</text></g><g stroke-linecap="round" transform="translate(1305 188) rotate(0 113 142.5)"><path d="M7.86 8.16 C7.86 8.16, 7.86 8.16, 7.86 8.16 M7.86 8.16 C7.86 8.16, 7.86 8.16, 7.86 8.16 M2.35 20.59 C5.56 13.18, 17.4 8.9, 18.1 2.48 M2.35 20.59 C7.91 17.78, 8.16 12.27, 18.1 2.48 M2.75 26.24 C12.52 13.94, 16.72 12.52, 24.4 1.33 M2.75 26.24 C7.11 21.74, 12.8 13.82, 24.4 1.33 M2.48 32.64 C9.78 19.81, 21.34 11.02, 30.7 0.18 M2.48 32.64 C14.38 20, 22.68 9.11, 30.7 0.18 M2.88 38.28 C15.66 22.8, 23.34 17.14, 34.37 2.05 M2.88 38.28 C10.87 28.23, 21.45 15.59, 34.37 2.05 M2.62 44.68 C10.46 32.42, 22 24.67, 39.36 2.41 M2.62 44.68 C11.04 31.4, 21.57 20.72, 39.36 2.41 M2.36 51.07 C16.39 39.76, 33.46 19.12, 45 2.02 M2.36 51.07 C18.79 33, 34.26 16.84, 45 2.02 M2.75 56.72 C23.36 39.05, 42.02 16.67, 49.99 2.38 M2.75 56.72 C18.85 37.37, 35.32 18.34, 49.99 2.38 M2.49 63.11 C21.72 41.96, 39.21 22.39, 55.63 1.98 M2.49 63.11 C21.58 41.79, 37.26 22.57, 55.63 1.98 M2.23 69.51 C20.68 53.57, 33.54 37.37, 60.62 2.34 M2.23 69.51 C22.14 47.48, 41.64 21.61, 60.62 2.34 M2.62 75.16 C25.64 50.8, 45.87 18.08, 66.26 1.95 M2.62 75.16 C20.16 57, 38.14 37.81, 66.26 1.95 M2.36 81.55 C16.63 62.32, 30.43 47.01, 71.25 2.31 M2.36 81.55 C21.75 61.58, 40.29 37.32, 71.25 2.31 M2.76 87.2 C29.36 58.91, 54.24 27.97, 76.89 1.91 M2.76 87.2 C28.55 54.4, 58.4 22.76, 76.89 1.91 M2.49 93.59 C24.81 67.23, 50.48 39.5, 81.88 2.27 M2.49 93.59 C17.75 75.59, 38.58 55.25, 81.88 2.27 M2.23 99.99 C22.45 72.1, 46.35 46.3, 87.52 1.88 M2.23 99.99 C19.55 82.24, 36.68 58.44, 87.52 1.88 M2.63 105.64 C27.59 72.63, 58.39 43.39, 92.51 2.24 M2.63 105.64 C20.02 84.2, 41.84 64.12, 92.51 2.24 M2.37 112.03 C24.75 86.95, 43.54 63.96, 98.15 1.85 M2.37 112.03 C39.58 68.54, 76.64 25.55, 98.15 1.85 M2.76 117.68 C36.43 80.09, 76.09 36.41, 103.14 2.21 M2.76 117.68 C31.08 85.83, 55.16 56.64, 103.14 2.21 M2.5 124.07 C25.49 95.16, 56.98 70.18, 108.78 1.81 M2.5 124.07 C42.91 80.47, 79.61 37.37, 108.78 1.81 M2.24 130.47 C29.92 99.3, 61.17 64.94, 113.77 2.17 M2.24 130.47 C46.69 82.65, 91.09 31.8, 113.77 2.17 M2.63 136.11 C29.8 99.46, 64.99 59.58, 119.41 1.78 M2.63 136.11 C25.54 105.42, 51.5 76.12, 119.41 1.78 M2.37 142.51 C44.86 88.07, 95.57 40.85, 124.4 2.14 M2.37 142.51 C29.2 111.47, 54.01 84.84, 124.4 2.14 M2.11 148.91 C34.16 107.96, 67.81 66.11, 130.04 1.74 M2.11 148.91 C37.72 103.11, 76.15 60.35, 130.04 1.74 M2.5 154.55 C27.29 120.33, 54.28 89.28, 135.03 2.1 M2.5 154.55 C35.29 117.26, 70.22 75.43, 135.03 2.1 M2.24 160.95 C36.87 123.03, 70.6 81.82, 140.67 1.71 M2.24 160.95 C49.91 101.21, 97.92 48.71, 140.67 1.71 M2.64 166.59 C52.89 115.97, 92.4 62.6, 145.66 2.07 M2.64 166.59 C51.63 110.59, 101.13 55.63, 145.66 2.07 M2.38 172.99 C29.99 134.13, 65.48 98.59, 150.65 2.43 M2.38 172.99 C55.25 111.36, 113.01 48.8, 150.65 2.43 M2.11 179.39 C35.4 133.08, 75.27 92.85, 156.29 2.03 M2.11 179.39 C61.91 108.54, 120.63 40.94, 156.29 2.03 M2.51 185.03 C52.1 130.74, 101.71 76.19, 161.28 2.39 M2.51 185.03 C38.73 145.84, 72.09 108.76, 161.28 2.39 M2.25 191.43 C45.42 147.83, 81.54 98.27, 166.92 2 M2.25 191.43 C59.79 123.04, 120.33 54.96, 166.92 2 M1.99 197.83 C65.52 124.88, 129.4 58.47, 171.91 2.36 M1.99 197.83 C51.91 138.21, 105.06 75.06, 171.91 2.36 M2.38 203.47 C43.6 148.93, 91.83 99.18, 177.55 1.96 M2.38 203.47 C62.59 135.09, 124.45 61.11, 177.55 1.96 M2.12 209.87 C42.37 165.81, 78.38 127.15, 182.54 2.32 M2.12 209.87 C37.65 163.87, 75.81 121.25, 182.54 2.32 M2.51 215.51 C73.39 138, 140.89 56.21, 188.18 1.93 M2.51 215.51 C58.26 147.31, 116.89 78.74, 188.18 1.93 M2.25 221.91 C78.09 133.55, 152.22 42.94, 194.48 0.78 M2.25 221.91 C45.34 173.45, 88.26 126.91, 194.48 0.78 M1.99 228.31 C54.19 169.81, 99.43 110.27, 199.46 1.14 M1.99 228.31 C60.27 160.57, 118.04 91.69, 199.46 1.14 M2.39 233.95 C81.44 144.24, 160.65 51.16, 203.8 2.26 M2.39 233.95 C74.72 154.67, 144.65 75.38, 203.8 2.26 M2.12 240.35 C73.56 154.15, 151.39 64.69, 208.78 2.62 M2.12 240.35 C52.36 182.27, 100.37 125.86, 208.78 2.62 M1.86 246.75 C48 187.33, 100.81 129.86, 211.8 5.24 M1.86 246.75 C79.65 160.97, 156.49 70.15, 211.8 5.24 M0.95 253.9 C83.51 164.78, 166.03 65.6, 214.82 7.86 M0.95 253.9 C76.43 169.46, 149.43 85.22, 214.82 7.86 M2 258.79 C64.94 191.13, 122.24 121.01, 218.5 9.73 M2 258.79 C81.13 165.77, 161.55 75.38, 218.5 9.73 M3.05 263.68 C75.98 180.88, 147.46 99.76, 221.51 12.36 M3.05 263.68 C73.75 180.47, 145.52 97.67, 221.51 12.36 M4.1 268.56 C59.07 211.96, 110.69 150.4, 224.53 14.98 M4.1 268.56 C48.28 216.95, 94.77 165.18, 224.53 14.98 M5.15 273.45 C63.46 205.31, 120.53 142.32, 225.58 19.87 M5.15 273.45 C87.97 174.92, 175.13 77.02, 225.58 19.87 M8.82 275.32 C84.88 197.36, 156.3 114.97, 226.63 24.76 M8.82 275.32 C53.73 219.13, 103.49 164.92, 226.63 24.76 M11.84 277.95 C93.12 191.18, 170.94 99.18, 227.68 29.65 M11.84 277.95 C91.16 185.64, 170.01 91.9, 227.68 29.65 M14.86 280.57 C89.07 191.65, 171.72 102.6, 228.74 34.54 M14.86 280.57 C92.1 196.21, 169.75 106.18, 228.74 34.54 M17.88 283.19 C81.49 209.58, 140.86 135.76, 229.13 40.18 M17.88 283.19 C80.07 211.93, 139.39 143.85, 229.13 40.18 M22.87 283.55 C67.71 224.19, 117.85 173.33, 228.87 46.58 M22.87 283.55 C66.22 232.96, 112.27 179.53, 228.87 46.58 M27.2 284.67 C69.68 233.91, 113.37 181.05, 228.61 52.97 M27.2 284.67 C91.23 204.97, 157.66 129.69, 228.61 52.97 M32.18 285.03 C75.31 234.32, 114.69 183.01, 229 58.62 M32.18 285.03 C78.81 235.32, 123.71 183.7, 229 58.62 M37.17 285.39 C104.89 202.4, 173.45 127.03, 228.74 65.01 M37.17 285.39 C92.14 223.6, 146.62 159.34, 228.74 65.01 M42.81 285 C98.95 222.17, 153.54 155.17, 229.14 70.66 M42.81 285 C90.07 229.61, 136.53 174.69, 229.14 70.66 M47.8 285.36 C95.98 234.25, 143.98 177.26, 228.87 77.06 M47.8 285.36 C110.97 217.71, 168.64 146.81, 228.87 77.06 M53.44 284.96 C95.39 240.43, 137.32 195.4, 228.61 83.45 M53.44 284.96 C121.81 207.41, 186.66 129.25, 228.61 83.45 M58.43 285.32 C114.55 220.43, 168 155.28, 229.01 89.1 M58.43 285.32 C93.03 242.04, 127.83 200.01, 229.01 89.1 M64.07 284.93 C103.29 241.2, 148.62 189.62, 228.75 95.49 M64.07 284.93 C126.87 216.57, 185.85 147.29, 228.75 95.49 M69.06 285.29 C118.25 232.47, 160 180.46, 229.14 101.14 M69.06 285.29 C110.2 234.32, 154.68 180.41, 229.14 101.14 M74.7 284.89 C107.02 242.02, 142.59 205.06, 228.88 107.54 M74.7 284.89 C132.86 215.97, 188.89 151.63, 228.88 107.54 M79.69 285.25 C124.57 232.52, 166.51 178.72, 228.62 113.93 M79.69 285.25 C117.87 244.15, 153.52 204.34, 228.62 113.93 M85.33 284.86 C123.26 245.1, 156.79 196.76, 229.01 119.58 M85.33 284.86 C117.37 246.8, 148.57 209.87, 229.01 119.58 M90.32 285.22 C126.97 238.57, 168.95 193.11, 228.75 125.97 M90.32 285.22 C123.48 245.24, 160.43 204.83, 228.75 125.97 M95.96 284.82 C132.93 236.37, 175.57 194.67, 228.49 132.37 M95.96 284.82 C138.94 235.44, 182.42 185.17, 228.49 132.37 M100.95 285.18 C132.46 255.85, 157.92 229.55, 228.88 138.01 M100.95 285.18 C146.04 231.18, 193.74 176.17, 228.88 138.01 M106.59 284.79 C144.78 243.21, 185.87 195.42, 228.62 144.41 M106.59 284.79 C134.34 253.07, 159.77 224.63, 228.62 144.41 M111.58 285.15 C154.52 242.7, 188.07 194.35, 229.02 150.06 M111.58 285.15 C148.18 242.39, 182.37 199.33, 229.02 150.06 M117.22 284.75 C151.15 244.22, 192.57 197.92, 228.75 156.45 M117.22 284.75 C156.54 238.92, 195.82 193.62, 228.75 156.45 M122.21 285.11 C166.71 236.47, 205.2 186.9, 228.49 162.85 M122.21 285.11 C157.09 244.7, 189.25 205.65, 228.49 162.85 M127.2 285.47 C148.74 261.93, 174.69 233.37, 228.89 168.49 M127.2 285.47 C160.3 246.75, 193.82 206.75, 228.89 168.49 M132.84 285.08 C157.58 256.63, 189.53 225.02, 228.63 174.89 M132.84 285.08 C161.34 252.5, 188.64 219.55, 228.63 174.89 M137.83 285.44 C157.62 255.82, 183.8 229.92, 229.02 180.53 M137.83 285.44 C165.93 252.82, 195.73 221.46, 229.02 180.53 M143.47 285.05 C169.26 262.67, 187.21 239.91, 228.76 186.93 M143.47 285.05 C161.13 262.96, 181.33 238.87, 228.76 186.93 M148.46 285.41 C181.36 247.91, 212.8 209.95, 228.5 193.33 M148.46 285.41 C176.13 254.82, 205.42 223.43, 228.5 193.33 M154.1 285.01 C181.12 252.2, 215.45 219.86, 228.89 198.97 M154.1 285.01 C180.94 250.91, 212.52 216.55, 228.89 198.97 M159.09 285.37 C185.89 250.86, 214.26 223.05, 228.63 205.37 M159.09 285.37 C178.37 263.89, 193.96 243.88, 228.63 205.37 M164.73 284.98 C192.2 252.13, 216.04 225.29, 229.03 211.01 M164.73 284.98 C186.6 259.98, 210.31 232.69, 229.03 211.01 M169.72 285.34 C184.17 261.72, 208.73 238.18, 228.76 217.41 M169.72 285.34 C189.9 259.87, 216.16 231.43, 228.76 217.41 M175.36 284.94 C186.68 275.73, 197.3 256.96, 228.5 223.81 M175.36 284.94 C196.88 260.12, 217.91 235.87, 228.5 223.81 M180.35 285.3 C196.09 267.54, 217.31 243.56, 228.9 229.45 M180.35 285.3 C189.46 274.57, 202.57 260.44, 228.9 229.45 M185.99 284.91 C192.79 276.06, 199.41 266.07, 228.64 235.85 M185.99 284.91 C195.49 273.68, 205.74 265.17, 228.64 235.85 M190.98 285.27 C197.19 277.05, 213.66 264.52, 229.03 241.49 M190.98 285.27 C205.12 269.13, 218.05 252.24, 229.03 241.49 M195.31 286.38 C208.22 270.81, 214.3 265.13, 228.77 247.89 M195.31 286.38 C205.12 276.95, 212.23 268.01, 228.77 247.89 M202.27 284.48 C211.65 277.95, 217.47 263.9, 227.85 255.04 M202.27 284.48 C213.76 272.57, 221.71 262.72, 227.85 255.04 M208.56 283.33 C219 275.03, 226.13 269.08, 226.93 262.2 M208.56 283.33 C210.78 278.47, 216.29 274.87, 226.93 262.2" stroke="#a5d8ff" stroke-width="0.5" fill="none"></path><path d="M32 0 M32 0 C91.58 0.78, 140.98 -1.91, 194 0 M32 0 C92.92 0.79, 151.05 1.48, 194 0 M194 0 C218.99 2.14, 227.54 14.34, 226 32 M194 0 C218.7 0.87, 227.24 10.24, 226 32 M226 32 C225.41 97.35, 222.5 164.92, 226 253 M226 32 C228.5 99.79, 227.62 166.83, 226 253 M226 253 C222.77 270.91, 216.18 281.27, 194 285 M226 253 C221.94 278.22, 218.78 281.26, 194 285 M194 285 C144.34 282.16, 99.32 285.76, 32 285 M194 285 C153.96 285.95, 117.76 285.28, 32 285 M32 285 C10.02 281.22, 0.39 270.51, 0 253 M32 285 C7.49 283.6, -3.25 273.91, 0 253 M0 253 C-2.15 177.99, 0.94 105.16, 0 32 M0 253 C1.03 197.7, 3.47 146.18, 0 32 M0 32 C-2.09 8.93, 10.61 0.55, 32 0 M0 32 C3.26 12.35, 10.32 -2.91, 32 0" stroke="#1971c2" stroke-width="1" fill="none"></path></g><g transform="translate(1339 222) rotate(0 33.07996368408203 12.5)"><text x="0" y="0" font-family="Virgil, Segoe UI Emoji" font-size="20px" fill="#1971c2" text-anchor="start" style="white-space: pre;" direction="ltr" dominant-baseline="text-before-edge">Iframe</text></g><g transform="translate(373 187) rotate(0 -18.5 7)" stroke="none"><path d="M-23.08 -6.81 C-23.08 -6.81, -23.08 -6.81, -23.08 -6.81 M-23.08 -6.81 C-23.08 -6.81, -23.08 -6.81, -23.08 -6.81 M-26.79 4.09 C-24.64 -0.73, -22.01 -3.59, -17.9 -4.77 M-26.36 2.61 C-23.7 0.89, -21.46 -1.9, -19.41 -6.69 M-25.12 7.31 C-23.83 6.19, -23.8 5.84, -23.09 5.17 M-24.91 7.77 C-24.6 6.79, -24.12 6.3, -22.83 5.16 M-19.95 1.15 C-19.02 1.43, -19.08 0.12, -17.56 -0.57 M-19.68 1.43 C-19.37 0.47, -18.7 -0.21, -17.43 -0.81 M-23.64 12.91 C-23.89 11.16, -22.56 10.95, -21.93 9.87 M-23.85 12.58 C-23.48 11.88, -22.56 11.15, -22.04 10.19 M-21.45 16.1 C-20.41 15.92, -20.47 14.71, -18.25 13.1 M-21.82 16.22 C-20.63 15.33, -20.4 13.76, -18.88 12.65 M-19.22 21.29 C-16.12 18.23, -16.02 15.74, -13.11 13.87 M-20.08 19.1 C-17.13 17.29, -15.57 15.72, -14.08 12.96 M-16.26 21.71 C-15.69 20.98, -13.94 18.8, -12.31 18.14 M-15.07 21.12 C-14.29 19.41, -13.63 18.29, -12.33 16.78" stroke="#a5d8ff" stroke-width="0.5" fill="none"></path><path fill="#2f9e44" d="M -16.04,-5.28 Q -16.04,-5.28 -15.76,-4.23 -15.48,-3.17 -14.97,-2.02 -14.45,-0.87 -14.82,1.01 -15.20,2.89 -16.30,3.41 -17.39,3.93 -18.45,3.83 -19.51,3.74 -20.68,3.56 -21.84,3.37 -21.02,2.67 -20.20,1.97 -19.82,3.19 -19.44,4.42 -19.18,5.53 -18.92,6.65 -18.43,7.74 -17.93,8.83 -16.91,9.18 -15.88,9.53 -14.89,9.95 -13.90,10.36 -15.40,10.31 -16.89,10.26 -17.18,9.88 -17.47,9.50 -17.48,9.06 -17.50,8.62 -17.42,8.18 -17.33,7.75 -17.14,7.34 -16.95,6.94 -16.67,6.60 -16.39,6.25 -16.03,5.99 -15.68,5.72 -15.27,5.54 -14.86,5.37 -14.42,5.30 -13.98,5.23 -13.54,5.26 -13.10,5.30 -12.68,5.44 -12.26,5.58 -11.88,5.81 -11.50,6.05 -11.20,6.37 -10.89,6.69 -10.67,7.07 -10.44,7.46 -10.32,7.88 -10.19,8.31 -10.73,9.88 -11.26,11.46 -10.74,12.49 -10.22,13.52 -9.83,14.51 -9.44,15.51 -8.76,16.85 -8.08,18.19 -7.84,19.30 -7.61,20.42 -8.52,22.18 -9.43,23.95 -10.71,24.43 -11.99,24.91 -13.53,24.96 -15.07,25.01 -16.60,24.27 -18.14,23.54 -19.22,23.36 -20.30,23.19 -21.64,22.26 -22.99,21.34 -24.05,20.05 -25.11,18.75 -25.83,17.62 -26.55,16.48 -27.11,15.32 -27.66,14.15 -28.10,12.96 -28.55,11.76 -28.67,10.35 -28.79,8.95 -28.93,7.81 -29.06,6.67 -29.33,5.36 -29.60,4.04 -29.64,2.52 -29.69,1.01 -29.70,-0.18 -29.70,-1.38 -29.52,-2.84 -29.33,-4.29 -28.74,-5.21 -28.14,-6.13 -27.47,-7.06 -26.81,-7.98 -25.84,-8.93 -24.87,-9.88 -23.42,-10.47 -21.97,-11.06 -19.32,-10.47 -16.68,-9.89 -15.80,-7.69 -14.92,-5.48 -14.89,-4.89 -14.86,-4.30 -15.02,-3.73 -15.18,-3.16 -15.52,-2.67 -15.85,-2.18 -16.32,-1.83 -16.79,-1.47 -17.35,-1.28 -17.92,-1.10 -18.51,-1.10 -19.10,-1.10 -19.66,-1.29 -20.22,-1.48 -20.69,-1.84 -21.16,-2.20 -21.49,-2.69 -21.82,-3.18 -21.97,-3.75 -22.13,-4.32 -22.10,-4.91 -22.06,-5.51 -21.84,-6.05 -21.62,-6.60 -21.24,-7.05 -20.85,-7.50 -20.34,-7.81 -19.84,-8.11 -19.26,-8.23 -18.68,-8.36 -18.09,-8.29 -17.50,-8.23 -16.97,-7.98 -16.43,-7.73 -16.00,-7.32 -15.58,-6.91 -15.30,-6.39 -15.03,-5.86 -14.93,-5.28 -14.84,-4.69 -14.94,-4.11 -15.03,-3.53 -15.31,-3.01 -15.59,-2.48 -16.02,-2.08 -16.45,-1.67 -16.99,-1.43 -17.53,-1.18 -18.12,-1.12 -18.71,-1.06 -19.28,-1.19 -19.86,-1.32 -20.37,-1.62 -20.87,-1.93 -21.25,-2.38 -21.63,-2.83 -21.85,-3.38 -22.07,-3.93 -22.07,-3.93 -22.07,-3.93 -21.81,-4.74 -21.56,-5.54 -20.23,-4.92 -18.91,-4.29 -20.09,-3.61 -21.27,-2.92 -21.78,-1.86 -22.29,-0.79 -22.29,0.58 -22.28,1.96 -22.20,3.10 -22.11,4.25 -21.90,5.78 -21.69,7.32 -21.67,8.55 -21.64,9.79 -21.23,10.94 -20.81,12.08 -20.12,13.21 -19.43,14.33 -18.94,15.31 -18.44,16.28 -17.05,16.46 -15.65,16.65 -14.80,17.38 -13.95,18.11 -14.42,19.59 -14.89,21.07 -15.54,19.83 -16.19,18.60 -16.70,17.04 -17.21,15.48 -17.42,14.19 -17.63,12.89 -17.73,11.51 -17.83,10.12 -17.31,8.44 -16.79,6.76 -17.13,8.13 -17.47,9.50 -17.48,9.06 -17.50,8.62 -17.42,8.18 -17.33,7.75 -17.14,7.35 -16.95,6.94 -16.67,6.60 -16.39,6.25 -16.03,5.99 -15.68,5.72 -15.27,5.55 -14.86,5.37 -14.42,5.30 -13.98,5.23 -13.54,5.26 -13.10,5.30 -12.68,5.44 -12.26,5.58 -11.88,5.81 -11.51,6.05 -11.20,6.37 -10.89,6.69 -10.67,7.07 -10.44,7.46 -10.32,7.88 -10.19,8.31 -10.16,8.63 -10.13,8.95 -10.10,10.70 -10.06,12.45 -11.25,14.23 -12.45,16.00 -13.96,16.48 -15.48,16.97 -16.58,16.72 -17.68,16.48 -18.74,16.22 -19.80,15.97 -21.09,15.05 -22.38,14.13 -23.42,12.86 -24.46,11.60 -24.94,10.23 -25.42,8.86 -25.71,7.42 -26.00,5.97 -26.21,4.69 -26.43,3.40 -26.52,2.31 -26.60,1.23 -26.25,0.13 -25.91,-0.95 -25.00,-1.59 -24.10,-2.22 -22.57,-2.48 -21.05,-2.73 -19.72,-2.25 -18.38,-1.78 -19.09,-0.69 -19.79,0.39 -20.15,-0.79 -20.51,-1.99 -20.73,-3.06 -20.95,-4.13 -20.98,-4.44 -21.01,-4.74 -20.97,-5.04 -20.93,-5.34 -20.82,-5.62 -20.71,-5.90 -20.54,-6.15 -20.36,-6.40 -20.13,-6.60 -19.90,-6.80 -19.63,-6.94 -19.36,-7.07 -19.06,-7.14 -18.77,-7.21 -18.47,-7.21 -18.16,-7.20 -17.87,-7.13 -17.57,-7.05 -17.31,-6.91 -17.04,-6.76 -16.81,-6.56 -16.59,-6.36 -16.42,-6.10 -16.25,-5.85 -16.15,-5.57 -16.04,-5.28 -16.04,-5.28 L -16.04,-5.28 Z"></path></g><g transform="translate(70 259) rotate(0 205.009765625 62.5)"><text x="0" y="0" font-family="Virgil, Segoe UI Emoji" font-size="20px" fill="#2f9e44" text-anchor="start" style="white-space: pre;" direction="ltr" dominant-baseline="text-before-edge">1. let newTab = window.open(viewTWo);</text><text x="0" y="25" font-family="Virgil, Segoe UI Emoji" font-size="20px" fill="#2f9e44" text-anchor="start" style="white-space: pre;" direction="ltr" dominant-baseline="text-before-edge"></text><text x="0" y="50" font-family="Virgil, Segoe UI Emoji" font-size="20px" fill="#2f9e44" text-anchor="start" style="white-space: pre;" direction="ltr" dominant-baseline="text-before-edge">2. setTimeout( () =&gt; {</text><text x="0" y="75" font-family="Virgil, Segoe UI Emoji" font-size="20px" fill="#2f9e44" text-anchor="start" style="white-space: pre;" direction="ltr" dominant-baseline="text-before-edge">    newTab.postMessage({phone_number})</text><text x="0" y="100" font-family="Virgil, Segoe UI Emoji" font-size="20px" fill="#2f9e44" text-anchor="start" style="white-space: pre;" direction="ltr" dominant-baseline="text-before-edge">   },2000);</text></g><g transform="translate(896 150) rotate(0 152.71981811523438 25)"><text x="0" y="0" font-family="Virgil, Segoe UI Emoji" font-size="20px" fill="#2f9e44" text-anchor="start" style="white-space: pre;" direction="ltr" dominant-baseline="text-before-edge">1. receive post Message</text><text x="0" y="25" font-family="Virgil, Segoe UI Emoji" font-size="20px" fill="#2f9e44" text-anchor="start" style="white-space: pre;" direction="ltr" dominant-baseline="text-before-edge">2. push the message to iframe</text></g></svg>